<svg xmlns="http://www.w3.org/2000/svg" xmlns:xlink="http://www.w3.org/1999/xlink" width="40" zoomAndPan="magnify" viewBox="0 0 30 30.000001" height="40" preserveAspectRatio="xMidYMid meet" version="1.0"><defs><clipPath id="090021e276"><path d="M 0.484375 0.0195312 L 29.515625 0.0195312 L 29.515625 29.03125 L 0.484375 29.03125 Z M 0.484375 0.0195312 " clip-rule="nonzero"/></clipPath></defs><g clip-path="url(#090021e276)"><path fill="#000000" d="M 25.253906 3.988281 C 22.515625 1.441406 18.871094 0.0351562 15 0.0351562 C 11.128906 0.0351562 7.488281 1.441406 4.746094 3.988281 C 2 6.546875 0.484375 9.949219 0.484375 13.570312 C 0.484375 17.550781 2.339844 21.292969 5.582031 23.871094 L 5.582031 28.597656 C 5.582031 28.75 5.660156 28.890625 5.789062 28.96875 C 5.859375 29.015625 5.941406 29.035156 6.023438 29.035156 C 6.085938 29.035156 6.152344 29.019531 6.214844 28.992188 L 11.0625 26.601562 C 12.339844 26.9375 13.664062 27.109375 15 27.109375 C 18.871094 27.109375 22.515625 25.703125 25.253906 23.15625 C 28.003906 20.597656 29.519531 17.195312 29.519531 13.570312 C 29.519531 9.949219 28.003906 6.546875 25.253906 3.988281 Z M 23.96875 10.132812 L 16.675781 18.164062 C 16.648438 18.191406 16.609375 18.210938 16.570312 18.210938 C 16.570312 18.210938 16.566406 18.210938 16.566406 18.210938 C 16.527344 18.210938 16.492188 18.195312 16.464844 18.167969 L 12.714844 14.410156 L 6.191406 17.96875 C 6.128906 18.003906 6.046875 17.984375 6.003906 17.925781 C 5.960938 17.867188 5.96875 17.785156 6.019531 17.734375 L 13.445312 10.292969 C 13.503906 10.234375 13.597656 10.234375 13.652344 10.292969 L 17.285156 13.929688 L 23.78125 9.910156 C 23.84375 9.871094 23.925781 9.886719 23.972656 9.941406 C 24.019531 9.996094 24.015625 10.078125 23.96875 10.132812 Z M 23.96875 10.132812 " fill-opacity="1" fill-rule="nonzero"/></g></svg>