<svg xmlns="http://www.w3.org/2000/svg" xmlns:xlink="http://www.w3.org/1999/xlink" width="40" zoomAndPan="magnify" viewBox="0 0 30 30.000001" height="40" preserveAspectRatio="xMidYMid meet" version="1.0"><defs><g/><clipPath id="7116cc5cae"><path d="M 0.484375 0 L 12 0 L 12 16 L 0.484375 16 Z M 0.484375 0 " clip-rule="nonzero"/></clipPath><clipPath id="02e389350c"><path d="M 12 0 L 29.515625 0 L 29.515625 16 L 12 16 Z M 12 0 " clip-rule="nonzero"/></clipPath><clipPath id="e73389e03b"><path d="M 0.484375 18 L 2 18 L 2 20 L 0.484375 20 Z M 0.484375 18 " clip-rule="nonzero"/></clipPath><clipPath id="c295e1ad7a"><path d="M 28 18 L 29.515625 18 L 29.515625 20 L 28 20 Z M 28 18 " clip-rule="nonzero"/></clipPath></defs><g clip-path="url(#7116cc5cae)"><g fill="#000000" fill-opacity="1"><g transform="translate(0.955684, 15.94829)"><g><path d="M 10.632812 -0.253906 C 9.660156 -2.414062 8.609375 -4.558594 7.632812 -6.757812 C 9.191406 -7.324219 10.496094 -8.570312 10.496094 -10.945312 C 10.496094 -15.539062 6.113281 -15.578125 5.238281 -15.578125 L 0.195312 -15.578125 C 0.0976562 -15.578125 0 -15.484375 0 -15.40625 L 0 -12.757812 L 5.238281 -12.757812 C 5.707031 -12.757812 7.535156 -12.660156 7.535156 -10.945312 C 7.535156 -9.230469 5.882812 -9.152344 5.238281 -9.152344 L 0 -9.152344 L 0 -0.175781 C 0 -0.0976562 0.0976562 0 0.195312 0 L 2.746094 0 C 2.863281 0 2.960938 -0.0976562 2.960938 -0.175781 L 2.960938 -6.289062 L 4.636719 -6.289062 L 7.476562 -0.117188 C 7.496094 -0.0585938 7.613281 0 7.671875 0 L 10.457031 0 C 10.613281 0 10.691406 -0.117188 10.632812 -0.253906 Z M 10.632812 -0.253906 "/></g></g></g></g><g clip-path="url(#02e389350c)"><g fill="#000000" fill-opacity="1"><g transform="translate(12.153173, 15.94829)"><g><path d="M 13.945312 -3.757812 L 16.902344 -3.757812 L 16.902344 -15.40625 C 16.902344 -15.484375 16.828125 -15.578125 16.691406 -15.578125 L 14.121094 -15.578125 C 14.042969 -15.578125 13.945312 -15.519531 13.90625 -15.464844 L 8.589844 -4.050781 L 3 -15.464844 C 2.980469 -15.519531 2.863281 -15.578125 2.804688 -15.578125 L 0.195312 -15.578125 C 0.0585938 -15.578125 0 -15.484375 0 -15.40625 L 0 -0.175781 C 0 -0.0976562 0.0585938 0 0.195312 0 L 2.765625 0 C 2.882812 0 2.980469 -0.0976562 2.980469 -0.175781 L 2.980469 -8.917969 L 7.207031 -0.738281 C 7.226562 -0.679688 7.34375 -0.625 7.402344 -0.625 L 9.796875 -0.625 C 9.855469 -0.625 9.953125 -0.679688 9.972656 -0.738281 L 13.945312 -8.707031 Z M 13.945312 -3.757812 "/></g></g></g></g><g clip-path="url(#e73389e03b)"><g fill="#3d3b3a" fill-opacity="1"><g transform="translate(0.458412, 19.828552)"><g><path d="M 0.859375 0 L 0.671875 -0.34375 L 0.4375 -0.34375 L 0.4375 0 L 0.125 0 L 0.125 -1.21875 L 0.671875 -1.21875 C 0.828125 -1.21875 0.945312 -1.179688 1.03125 -1.109375 C 1.125 -1.035156 1.171875 -0.929688 1.171875 -0.796875 C 1.171875 -0.609375 1.097656 -0.476562 0.953125 -0.40625 L 1.203125 0 Z M 0.4375 -0.578125 L 0.671875 -0.578125 C 0.734375 -0.578125 0.78125 -0.59375 0.8125 -0.625 C 0.851562 -0.664062 0.875 -0.71875 0.875 -0.78125 C 0.875 -0.84375 0.851562 -0.890625 0.8125 -0.921875 C 0.78125 -0.953125 0.734375 -0.96875 0.671875 -0.96875 L 0.4375 -0.96875 Z M 0.4375 -0.578125 "/></g></g></g></g><g fill="#3d3b3a" fill-opacity="1"><g transform="translate(2.15407, 19.828552)"><g><path d="M 1.078125 -0.96875 L 0.4375 -0.96875 L 0.4375 -0.734375 L 1.015625 -0.734375 L 1.015625 -0.484375 L 0.4375 -0.484375 L 0.4375 -0.25 L 1.09375 -0.25 L 1.09375 0 L 0.125 0 L 0.125 -1.21875 L 1.078125 -1.21875 Z M 1.078125 -0.96875 "/></g></g></g><g fill="#3d3b3a" fill-opacity="1"><g transform="translate(3.762691, 19.828552)"><g><path d="M 0.59375 -1.234375 C 0.769531 -1.234375 0.925781 -1.1875 1.0625 -1.09375 L 0.953125 -0.84375 C 0.890625 -0.882812 0.820312 -0.914062 0.75 -0.9375 C 0.675781 -0.96875 0.613281 -0.984375 0.5625 -0.984375 C 0.46875 -0.984375 0.421875 -0.953125 0.421875 -0.890625 C 0.421875 -0.847656 0.441406 -0.816406 0.484375 -0.796875 C 0.535156 -0.773438 0.59375 -0.753906 0.65625 -0.734375 C 0.71875 -0.722656 0.78125 -0.703125 0.84375 -0.671875 C 0.90625 -0.648438 0.957031 -0.613281 1 -0.5625 C 1.039062 -0.507812 1.0625 -0.441406 1.0625 -0.359375 C 1.0625 -0.242188 1.015625 -0.148438 0.921875 -0.078125 C 0.835938 -0.015625 0.722656 0.015625 0.578125 0.015625 C 0.484375 0.015625 0.382812 0 0.28125 -0.03125 C 0.1875 -0.0703125 0.101562 -0.125 0.03125 -0.1875 L 0.15625 -0.421875 C 0.207031 -0.367188 0.273438 -0.320312 0.359375 -0.28125 C 0.441406 -0.25 0.519531 -0.234375 0.59375 -0.234375 C 0.632812 -0.234375 0.671875 -0.242188 0.703125 -0.265625 C 0.734375 -0.285156 0.75 -0.3125 0.75 -0.34375 C 0.75 -0.375 0.734375 -0.398438 0.703125 -0.421875 C 0.671875 -0.453125 0.628906 -0.472656 0.578125 -0.484375 C 0.535156 -0.492188 0.484375 -0.503906 0.421875 -0.515625 C 0.367188 -0.535156 0.316406 -0.554688 0.265625 -0.578125 C 0.222656 -0.609375 0.1875 -0.644531 0.15625 -0.6875 C 0.125 -0.738281 0.109375 -0.796875 0.109375 -0.859375 C 0.109375 -0.972656 0.148438 -1.0625 0.234375 -1.125 C 0.328125 -1.195312 0.445312 -1.234375 0.59375 -1.234375 Z M 0.59375 -1.234375 "/></g></g></g><g fill="#3d3b3a" fill-opacity="1"><g transform="translate(5.31909, 19.828552)"><g><path d="M 0.4375 0 L 0.125 0 L 0.125 -1.21875 L 0.4375 -1.21875 Z M 0.4375 0 "/></g></g></g><g fill="#3d3b3a" fill-opacity="1"><g transform="translate(6.308005, 19.828552)"><g><path d="M 0.125 -1.21875 L 0.640625 -1.21875 C 0.828125 -1.21875 0.976562 -1.160156 1.09375 -1.046875 C 1.21875 -0.929688 1.28125 -0.785156 1.28125 -0.609375 C 1.28125 -0.429688 1.21875 -0.285156 1.09375 -0.171875 C 0.976562 -0.0546875 0.820312 0 0.625 0 L 0.125 0 Z M 0.4375 -0.96875 L 0.4375 -0.25 L 0.65625 -0.25 C 0.75 -0.25 0.820312 -0.28125 0.875 -0.34375 C 0.9375 -0.414062 0.96875 -0.503906 0.96875 -0.609375 C 0.96875 -0.710938 0.9375 -0.796875 0.875 -0.859375 C 0.8125 -0.929688 0.734375 -0.96875 0.640625 -0.96875 Z M 0.4375 -0.96875 "/></g></g></g><g fill="#3d3b3a" fill-opacity="1"><g transform="translate(8.078515, 19.828552)"><g><path d="M 1.078125 -0.96875 L 0.4375 -0.96875 L 0.4375 -0.734375 L 1.015625 -0.734375 L 1.015625 -0.484375 L 0.4375 -0.484375 L 0.4375 -0.25 L 1.09375 -0.25 L 1.09375 0 L 0.125 0 L 0.125 -1.21875 L 1.078125 -1.21875 Z M 1.078125 -0.96875 "/></g></g></g><g fill="#3d3b3a" fill-opacity="1"><g transform="translate(9.687136, 19.828552)"><g><path d="M 1.234375 0 L 0.96875 0 L 0.40625 -0.75 L 0.40625 0 L 0.125 0 L 0.125 -1.21875 L 0.390625 -1.21875 L 0.953125 -0.46875 L 0.953125 -1.21875 L 1.234375 -1.21875 Z M 1.234375 0 "/></g></g></g><g fill="#3d3b3a" fill-opacity="1"><g transform="translate(11.490721, 19.828552)"><g><path d="M 0.6875 -1.21875 C 0.78125 -1.21875 0.867188 -1.195312 0.953125 -1.15625 C 1.046875 -1.125 1.117188 -1.078125 1.171875 -1.015625 L 1 -0.8125 C 0.957031 -0.851562 0.910156 -0.890625 0.859375 -0.921875 C 0.804688 -0.953125 0.753906 -0.96875 0.703125 -0.96875 C 0.597656 -0.96875 0.515625 -0.929688 0.453125 -0.859375 C 0.390625 -0.796875 0.359375 -0.710938 0.359375 -0.609375 C 0.359375 -0.515625 0.390625 -0.429688 0.453125 -0.359375 C 0.515625 -0.285156 0.597656 -0.25 0.703125 -0.25 C 0.742188 -0.25 0.789062 -0.257812 0.84375 -0.28125 C 0.90625 -0.3125 0.957031 -0.351562 1 -0.40625 L 1.1875 -0.203125 C 1.113281 -0.140625 1.03125 -0.0859375 0.9375 -0.046875 C 0.851562 -0.00390625 0.769531 0.015625 0.6875 0.015625 C 0.5 0.015625 0.34375 -0.0390625 0.21875 -0.15625 C 0.101562 -0.28125 0.046875 -0.429688 0.046875 -0.609375 C 0.046875 -0.785156 0.101562 -0.929688 0.21875 -1.046875 C 0.34375 -1.160156 0.5 -1.21875 0.6875 -1.21875 Z M 0.6875 -1.21875 "/></g></g></g><g fill="#3d3b3a" fill-opacity="1"><g transform="translate(13.130676, 19.828552)"><g><path d="M 0.4375 0 L 0.125 0 L 0.125 -1.21875 L 0.4375 -1.21875 Z M 0.4375 0 "/></g></g></g><g fill="#3d3b3a" fill-opacity="1"><g transform="translate(14.11959, 19.828552)"><g><path d="M 0.921875 -0.21875 L 0.390625 -0.21875 L 0.3125 0 L -0.015625 0 L 0.515625 -1.21875 L 0.828125 -1.21875 L 1.34375 0 L 1.015625 0 Z M 0.84375 -0.453125 L 0.671875 -0.90625 L 0.484375 -0.453125 Z M 0.84375 -0.453125 "/></g></g></g><g fill="#3d3b3a" fill-opacity="1"><g transform="translate(15.895323, 19.828552)"><g/></g></g><g fill="#3d3b3a" fill-opacity="1"><g transform="translate(16.734534, 19.828552)"><g><path d="M 1.453125 0 L 1.1875 0 L 1.1875 -0.796875 L 0.890625 -0.125 L 0.6875 -0.125 L 0.390625 -0.796875 L 0.390625 0 L 0.125 0 L 0.125 -1.21875 L 0.453125 -1.21875 L 0.796875 -0.5 L 1.125 -1.21875 L 1.453125 -1.21875 Z M 1.453125 0 "/></g></g></g><g fill="#3d3b3a" fill-opacity="1"><g transform="translate(18.753973, 19.828552)"><g><path d="M 0.921875 -0.21875 L 0.390625 -0.21875 L 0.3125 0 L -0.015625 0 L 0.515625 -1.21875 L 0.828125 -1.21875 L 1.34375 0 L 1.015625 0 Z M 0.84375 -0.453125 L 0.671875 -0.90625 L 0.484375 -0.453125 Z M 0.84375 -0.453125 "/></g></g></g><g fill="#3d3b3a" fill-opacity="1"><g transform="translate(20.529706, 19.828552)"><g><path d="M 0.859375 0 L 0.671875 -0.34375 L 0.4375 -0.34375 L 0.4375 0 L 0.125 0 L 0.125 -1.21875 L 0.671875 -1.21875 C 0.828125 -1.21875 0.945312 -1.179688 1.03125 -1.109375 C 1.125 -1.035156 1.171875 -0.929688 1.171875 -0.796875 C 1.171875 -0.609375 1.097656 -0.476562 0.953125 -0.40625 L 1.203125 0 Z M 0.4375 -0.578125 L 0.671875 -0.578125 C 0.734375 -0.578125 0.78125 -0.59375 0.8125 -0.625 C 0.851562 -0.664062 0.875 -0.71875 0.875 -0.78125 C 0.875 -0.84375 0.851562 -0.890625 0.8125 -0.921875 C 0.78125 -0.953125 0.734375 -0.96875 0.671875 -0.96875 L 0.4375 -0.96875 Z M 0.4375 -0.578125 "/></g></g></g><g fill="#3d3b3a" fill-opacity="1"><g transform="translate(22.225363, 19.828552)"><g><path d="M 1.046875 -0.96875 L 0.6875 -0.96875 L 0.6875 0 L 0.375 0 L 0.375 -0.96875 L 0.015625 -0.96875 L 0.015625 -1.21875 L 1.046875 -1.21875 Z M 1.046875 -0.96875 "/></g></g></g><g fill="#3d3b3a" fill-opacity="1"><g transform="translate(23.724318, 19.828552)"><g><path d="M 0.4375 0 L 0.125 0 L 0.125 -1.21875 L 0.4375 -1.21875 Z M 0.4375 0 "/></g></g></g><g fill="#3d3b3a" fill-opacity="1"><g transform="translate(24.713233, 19.828552)"><g><path d="M 1.234375 0 L 0.96875 0 L 0.40625 -0.75 L 0.40625 0 L 0.125 0 L 0.125 -1.21875 L 0.390625 -1.21875 L 0.953125 -0.46875 L 0.953125 -1.21875 L 1.234375 -1.21875 Z M 1.234375 0 "/></g></g></g><g fill="#3d3b3a" fill-opacity="1"><g transform="translate(26.516819, 19.828552)"><g><path d="M 1.078125 -0.96875 L 0.4375 -0.96875 L 0.4375 -0.734375 L 1.015625 -0.734375 L 1.015625 -0.484375 L 0.4375 -0.484375 L 0.4375 -0.25 L 1.09375 -0.25 L 1.09375 0 L 0.125 0 L 0.125 -1.21875 L 1.078125 -1.21875 Z M 1.078125 -0.96875 "/></g></g></g><g clip-path="url(#c295e1ad7a)"><g fill="#3d3b3a" fill-opacity="1"><g transform="translate(28.12544, 19.828552)"><g><path d="M 1.109375 -1.015625 L 0.46875 -0.25 L 1.125 -0.25 L 1.125 0 L 0.046875 0 L 0.046875 -0.203125 L 0.703125 -0.96875 L 0.078125 -0.96875 L 0.078125 -1.21875 L 1.109375 -1.21875 Z M 1.109375 -1.015625 "/></g></g></g></g><g fill="#000000" fill-opacity="1"><g transform="translate(2.375503, 23.729035)"><g><path d="M 0.625 -1.234375 C 0.71875 -1.234375 0.789062 -1.21875 0.84375 -1.1875 C 0.90625 -1.15625 0.953125 -1.109375 0.984375 -1.046875 C 1.015625 -0.992188 1.03125 -0.929688 1.03125 -0.859375 C 1.03125 -0.785156 1.015625 -0.71875 0.984375 -0.65625 C 0.953125 -0.601562 0.90625 -0.5625 0.84375 -0.53125 C 0.789062 -0.5 0.71875 -0.484375 0.625 -0.484375 L 0.328125 -0.484375 L 0.328125 0 L 0.1875 0 L 0.1875 -1.234375 Z M 0.625 -0.609375 C 0.800781 -0.609375 0.890625 -0.691406 0.890625 -0.859375 C 0.890625 -1.023438 0.800781 -1.109375 0.625 -1.109375 L 0.328125 -1.109375 L 0.328125 -0.609375 Z M 0.625 -0.609375 "/></g></g><g transform="translate(3.509292, 23.729035)"><g><path d="M 0.15625 0 L 0.15625 -1.3125 L 0.296875 -1.3125 L 0.296875 -0.796875 L 0.3125 -0.796875 C 0.382812 -0.898438 0.484375 -0.953125 0.609375 -0.953125 C 0.722656 -0.953125 0.800781 -0.921875 0.84375 -0.859375 C 0.894531 -0.804688 0.921875 -0.71875 0.921875 -0.59375 L 0.921875 0 L 0.796875 0 L 0.796875 -0.59375 C 0.796875 -0.65625 0.785156 -0.703125 0.765625 -0.734375 C 0.753906 -0.765625 0.734375 -0.785156 0.703125 -0.796875 C 0.671875 -0.816406 0.628906 -0.828125 0.578125 -0.828125 C 0.492188 -0.828125 0.425781 -0.800781 0.375 -0.75 C 0.320312 -0.695312 0.296875 -0.609375 0.296875 -0.484375 L 0.296875 0 Z M 0.15625 0 "/></g></g><g transform="translate(4.589496, 23.729035)"><g><path d="M 0.390625 0.015625 C 0.296875 0.015625 0.222656 -0.00390625 0.171875 -0.046875 C 0.117188 -0.0976562 0.09375 -0.171875 0.09375 -0.265625 C 0.09375 -0.316406 0.101562 -0.359375 0.125 -0.390625 C 0.144531 -0.429688 0.179688 -0.460938 0.234375 -0.484375 C 0.285156 -0.515625 0.347656 -0.535156 0.421875 -0.546875 C 0.484375 -0.554688 0.53125 -0.566406 0.5625 -0.578125 C 0.601562 -0.597656 0.628906 -0.613281 0.640625 -0.625 C 0.660156 -0.644531 0.671875 -0.671875 0.671875 -0.703125 C 0.671875 -0.742188 0.65625 -0.773438 0.625 -0.796875 C 0.59375 -0.816406 0.546875 -0.828125 0.484375 -0.828125 C 0.421875 -0.828125 0.367188 -0.816406 0.328125 -0.796875 C 0.285156 -0.773438 0.242188 -0.738281 0.203125 -0.6875 L 0.1875 -0.6875 L 0.125 -0.78125 C 0.164062 -0.832031 0.210938 -0.875 0.265625 -0.90625 C 0.328125 -0.9375 0.398438 -0.953125 0.484375 -0.953125 C 0.585938 -0.953125 0.664062 -0.925781 0.71875 -0.875 C 0.769531 -0.832031 0.796875 -0.765625 0.796875 -0.671875 L 0.796875 -0.1875 C 0.796875 -0.132812 0.820312 -0.109375 0.875 -0.109375 C 0.882812 -0.109375 0.894531 -0.109375 0.90625 -0.109375 L 0.921875 -0.109375 L 0.9375 -0.015625 C 0.925781 -0.00390625 0.910156 0 0.890625 0 C 0.878906 0 0.863281 0 0.84375 0 C 0.789062 0 0.75 -0.0078125 0.71875 -0.03125 C 0.695312 -0.0507812 0.6875 -0.0820312 0.6875 -0.125 L 0.65625 -0.125 C 0.632812 -0.0820312 0.597656 -0.046875 0.546875 -0.015625 C 0.503906 0.00390625 0.453125 0.015625 0.390625 0.015625 Z M 0.421875 -0.09375 C 0.472656 -0.09375 0.515625 -0.101562 0.546875 -0.125 C 0.585938 -0.15625 0.617188 -0.191406 0.640625 -0.234375 C 0.660156 -0.273438 0.671875 -0.320312 0.671875 -0.375 L 0.671875 -0.5 L 0.65625 -0.5 C 0.632812 -0.488281 0.609375 -0.476562 0.578125 -0.46875 C 0.546875 -0.457031 0.503906 -0.445312 0.453125 -0.4375 C 0.398438 -0.425781 0.359375 -0.410156 0.328125 -0.390625 C 0.296875 -0.378906 0.269531 -0.363281 0.25 -0.34375 C 0.238281 -0.320312 0.234375 -0.296875 0.234375 -0.265625 C 0.234375 -0.203125 0.25 -0.15625 0.28125 -0.125 C 0.3125 -0.101562 0.359375 -0.09375 0.421875 -0.09375 Z M 0.421875 -0.09375 "/></g></g><g transform="translate(5.559978, 23.729035)"><g><path d="M 0.421875 0.015625 C 0.367188 0.015625 0.316406 0.0078125 0.265625 0 C 0.210938 -0.0195312 0.164062 -0.0390625 0.125 -0.0625 C 0.09375 -0.09375 0.0703125 -0.125 0.0625 -0.15625 L 0.140625 -0.25 L 0.15625 -0.25 C 0.1875 -0.195312 0.222656 -0.160156 0.265625 -0.140625 C 0.316406 -0.117188 0.367188 -0.109375 0.421875 -0.109375 C 0.492188 -0.109375 0.546875 -0.117188 0.578125 -0.140625 C 0.617188 -0.171875 0.640625 -0.210938 0.640625 -0.265625 C 0.640625 -0.296875 0.628906 -0.320312 0.609375 -0.34375 C 0.585938 -0.375 0.550781 -0.394531 0.5 -0.40625 L 0.34375 -0.4375 C 0.257812 -0.457031 0.195312 -0.488281 0.15625 -0.53125 C 0.113281 -0.582031 0.09375 -0.640625 0.09375 -0.703125 C 0.09375 -0.753906 0.101562 -0.796875 0.125 -0.828125 C 0.15625 -0.867188 0.195312 -0.898438 0.25 -0.921875 C 0.300781 -0.941406 0.359375 -0.953125 0.421875 -0.953125 C 0.503906 -0.953125 0.570312 -0.9375 0.625 -0.90625 C 0.675781 -0.882812 0.71875 -0.851562 0.75 -0.8125 L 0.671875 -0.734375 L 0.640625 -0.734375 C 0.617188 -0.773438 0.585938 -0.800781 0.546875 -0.8125 C 0.515625 -0.832031 0.472656 -0.84375 0.421875 -0.84375 C 0.359375 -0.84375 0.3125 -0.828125 0.28125 -0.796875 C 0.25 -0.773438 0.234375 -0.742188 0.234375 -0.703125 C 0.234375 -0.671875 0.242188 -0.640625 0.265625 -0.609375 C 0.285156 -0.585938 0.328125 -0.570312 0.390625 -0.5625 L 0.546875 -0.515625 C 0.628906 -0.503906 0.6875 -0.472656 0.71875 -0.421875 C 0.757812 -0.378906 0.78125 -0.328125 0.78125 -0.265625 C 0.78125 -0.203125 0.765625 -0.148438 0.734375 -0.109375 C 0.710938 -0.0664062 0.675781 -0.0351562 0.625 -0.015625 C 0.570312 0.00390625 0.503906 0.015625 0.421875 0.015625 Z M 0.421875 0.015625 "/></g></g><g transform="translate(6.427543, 23.729035)"><g><path d="M 0.890625 -0.4375 L 0.25 -0.4375 C 0.25 -0.320312 0.273438 -0.238281 0.328125 -0.1875 C 0.378906 -0.132812 0.445312 -0.109375 0.53125 -0.109375 C 0.601562 -0.109375 0.660156 -0.117188 0.703125 -0.140625 C 0.742188 -0.160156 0.773438 -0.195312 0.796875 -0.25 L 0.8125 -0.25 L 0.90625 -0.203125 C 0.875 -0.128906 0.828125 -0.0703125 0.765625 -0.03125 C 0.710938 0 0.632812 0.015625 0.53125 0.015625 C 0.445312 0.015625 0.367188 0 0.296875 -0.03125 C 0.234375 -0.0703125 0.1875 -0.128906 0.15625 -0.203125 C 0.125 -0.273438 0.109375 -0.363281 0.109375 -0.46875 C 0.109375 -0.570312 0.125 -0.660156 0.15625 -0.734375 C 0.195312 -0.804688 0.25 -0.859375 0.3125 -0.890625 C 0.375 -0.929688 0.445312 -0.953125 0.53125 -0.953125 C 0.644531 -0.953125 0.734375 -0.914062 0.796875 -0.84375 C 0.867188 -0.78125 0.90625 -0.679688 0.90625 -0.546875 C 0.90625 -0.492188 0.90625 -0.460938 0.90625 -0.453125 Z M 0.78125 -0.546875 C 0.769531 -0.648438 0.742188 -0.722656 0.703125 -0.765625 C 0.660156 -0.804688 0.601562 -0.828125 0.53125 -0.828125 C 0.445312 -0.828125 0.378906 -0.804688 0.328125 -0.765625 C 0.285156 -0.722656 0.257812 -0.648438 0.25 -0.546875 Z M 0.78125 -0.546875 "/></g></g><g transform="translate(7.427795, 23.729035)"><g/></g><g transform="translate(7.854773, 23.729035)"><g><path d="M 0.34375 0 L 0.1875 0 L 0.65625 -1.09375 L 0.65625 -1.109375 L 0.046875 -1.109375 L 0.046875 -1.234375 L 0.796875 -1.234375 L 0.796875 -1.109375 Z M 0.34375 0 "/></g></g><g transform="translate(8.713833, 23.729035)"><g><path d="M 0.046875 0.265625 C 0.0976562 0.222656 0.140625 0.179688 0.171875 0.140625 C 0.210938 0.0976562 0.234375 0.0507812 0.234375 0 C 0.203125 0 0.175781 -0.00390625 0.15625 -0.015625 C 0.132812 -0.0351562 0.125 -0.0625 0.125 -0.09375 C 0.125 -0.125 0.128906 -0.144531 0.140625 -0.15625 C 0.160156 -0.175781 0.1875 -0.1875 0.21875 -0.1875 C 0.257812 -0.1875 0.289062 -0.175781 0.3125 -0.15625 C 0.332031 -0.132812 0.34375 -0.0976562 0.34375 -0.046875 C 0.34375 0.0351562 0.320312 0.109375 0.28125 0.171875 C 0.238281 0.234375 0.179688 0.289062 0.109375 0.34375 Z M 0.046875 0.265625 "/></g></g><g transform="translate(9.175684, 23.729035)"><g/></g><g transform="translate(9.602662, 23.729035)"><g><path d="M 0.328125 0 L 0.1875 0 L 0.1875 -1.234375 L 0.40625 -1.234375 L 0.78125 -0.1875 L 0.796875 -0.1875 L 1.171875 -1.234375 L 1.375 -1.234375 L 1.375 0 L 1.234375 0 L 1.234375 -1.015625 L 1.21875 -1.015625 L 0.859375 0 L 0.703125 0 L 0.34375 -1.015625 L 0.328125 -1.015625 Z M 0.328125 0 "/></g></g><g transform="translate(11.177038, 23.729035)"><g><path d="M 0.390625 0.015625 C 0.296875 0.015625 0.222656 -0.00390625 0.171875 -0.046875 C 0.117188 -0.0976562 0.09375 -0.171875 0.09375 -0.265625 C 0.09375 -0.316406 0.101562 -0.359375 0.125 -0.390625 C 0.144531 -0.429688 0.179688 -0.460938 0.234375 -0.484375 C 0.285156 -0.515625 0.347656 -0.535156 0.421875 -0.546875 C 0.484375 -0.554688 0.53125 -0.566406 0.5625 -0.578125 C 0.601562 -0.597656 0.628906 -0.613281 0.640625 -0.625 C 0.660156 -0.644531 0.671875 -0.671875 0.671875 -0.703125 C 0.671875 -0.742188 0.65625 -0.773438 0.625 -0.796875 C 0.59375 -0.816406 0.546875 -0.828125 0.484375 -0.828125 C 0.421875 -0.828125 0.367188 -0.816406 0.328125 -0.796875 C 0.285156 -0.773438 0.242188 -0.738281 0.203125 -0.6875 L 0.1875 -0.6875 L 0.125 -0.78125 C 0.164062 -0.832031 0.210938 -0.875 0.265625 -0.90625 C 0.328125 -0.9375 0.398438 -0.953125 0.484375 -0.953125 C 0.585938 -0.953125 0.664062 -0.925781 0.71875 -0.875 C 0.769531 -0.832031 0.796875 -0.765625 0.796875 -0.671875 L 0.796875 -0.1875 C 0.796875 -0.132812 0.820312 -0.109375 0.875 -0.109375 C 0.882812 -0.109375 0.894531 -0.109375 0.90625 -0.109375 L 0.921875 -0.109375 L 0.9375 -0.015625 C 0.925781 -0.00390625 0.910156 0 0.890625 0 C 0.878906 0 0.863281 0 0.84375 0 C 0.789062 0 0.75 -0.0078125 0.71875 -0.03125 C 0.695312 -0.0507812 0.6875 -0.0820312 0.6875 -0.125 L 0.65625 -0.125 C 0.632812 -0.0820312 0.597656 -0.046875 0.546875 -0.015625 C 0.503906 0.00390625 0.453125 0.015625 0.390625 0.015625 Z M 0.421875 -0.09375 C 0.472656 -0.09375 0.515625 -0.101562 0.546875 -0.125 C 0.585938 -0.15625 0.617188 -0.191406 0.640625 -0.234375 C 0.660156 -0.273438 0.671875 -0.320312 0.671875 -0.375 L 0.671875 -0.5 L 0.65625 -0.5 C 0.632812 -0.488281 0.609375 -0.476562 0.578125 -0.46875 C 0.546875 -0.457031 0.503906 -0.445312 0.453125 -0.4375 C 0.398438 -0.425781 0.359375 -0.410156 0.328125 -0.390625 C 0.296875 -0.378906 0.269531 -0.363281 0.25 -0.34375 C 0.238281 -0.320312 0.234375 -0.296875 0.234375 -0.265625 C 0.234375 -0.203125 0.25 -0.15625 0.28125 -0.125 C 0.3125 -0.101562 0.359375 -0.09375 0.421875 -0.09375 Z M 0.421875 -0.09375 "/></g></g><g transform="translate(12.14752, 23.729035)"><g><path d="M 0.15625 0 L 0.15625 -0.9375 L 0.296875 -0.9375 L 0.296875 -0.78125 L 0.3125 -0.78125 C 0.351562 -0.882812 0.4375 -0.9375 0.5625 -0.9375 C 0.625 -0.9375 0.671875 -0.925781 0.703125 -0.90625 L 0.671875 -0.796875 L 0.640625 -0.78125 C 0.609375 -0.800781 0.570312 -0.8125 0.53125 -0.8125 C 0.457031 -0.8125 0.398438 -0.78125 0.359375 -0.71875 C 0.316406 -0.664062 0.296875 -0.578125 0.296875 -0.453125 L 0.296875 0 Z M 0.15625 0 "/></g></g><g transform="translate(12.872192, 23.729035)"><g><path d="M 0.625 -0.140625 L 0.671875 -0.046875 C 0.648438 -0.0234375 0.617188 -0.0078125 0.578125 0 C 0.546875 0.0078125 0.507812 0.015625 0.46875 0.015625 C 0.289062 0.015625 0.203125 -0.0703125 0.203125 -0.25 L 0.203125 -0.828125 L 0.046875 -0.828125 L 0.046875 -0.9375 L 0.203125 -0.9375 L 0.203125 -1.125 L 0.34375 -1.15625 L 0.34375 -0.9375 L 0.640625 -0.9375 L 0.640625 -0.828125 L 0.34375 -0.828125 L 0.34375 -0.265625 C 0.34375 -0.160156 0.390625 -0.109375 0.484375 -0.109375 C 0.535156 -0.109375 0.578125 -0.117188 0.609375 -0.140625 Z M 0.625 -0.140625 "/></g></g><g transform="translate(13.586658, 23.729035)"><g><path d="M 0.234375 -1.109375 C 0.203125 -1.109375 0.175781 -1.117188 0.15625 -1.140625 C 0.144531 -1.160156 0.140625 -1.1875 0.140625 -1.21875 C 0.140625 -1.238281 0.144531 -1.257812 0.15625 -1.28125 C 0.175781 -1.300781 0.203125 -1.3125 0.234375 -1.3125 C 0.265625 -1.3125 0.285156 -1.300781 0.296875 -1.28125 C 0.316406 -1.257812 0.328125 -1.238281 0.328125 -1.21875 C 0.328125 -1.1875 0.316406 -1.160156 0.296875 -1.140625 C 0.285156 -1.117188 0.265625 -1.109375 0.234375 -1.109375 Z M 0.15625 0 L 0.15625 -0.9375 L 0.296875 -0.9375 L 0.296875 0 Z M 0.15625 0 "/></g></g><g transform="translate(14.051911, 23.729035)"><g><path d="M 0.15625 0 L 0.15625 -0.9375 L 0.296875 -0.9375 L 0.296875 -0.78125 L 0.3125 -0.78125 C 0.34375 -0.832031 0.378906 -0.875 0.421875 -0.90625 C 0.472656 -0.9375 0.535156 -0.953125 0.609375 -0.953125 C 0.722656 -0.953125 0.800781 -0.921875 0.84375 -0.859375 C 0.894531 -0.804688 0.921875 -0.71875 0.921875 -0.59375 L 0.921875 0 L 0.796875 0 L 0.796875 -0.59375 C 0.796875 -0.65625 0.785156 -0.703125 0.765625 -0.734375 C 0.753906 -0.765625 0.734375 -0.785156 0.703125 -0.796875 C 0.671875 -0.816406 0.628906 -0.828125 0.578125 -0.828125 C 0.492188 -0.828125 0.425781 -0.800781 0.375 -0.75 C 0.320312 -0.695312 0.296875 -0.609375 0.296875 -0.484375 L 0.296875 0 Z M 0.15625 0 "/></g></g><g transform="translate(15.132115, 23.729035)"><g><path d="M 0.890625 -0.4375 L 0.25 -0.4375 C 0.25 -0.320312 0.273438 -0.238281 0.328125 -0.1875 C 0.378906 -0.132812 0.445312 -0.109375 0.53125 -0.109375 C 0.601562 -0.109375 0.660156 -0.117188 0.703125 -0.140625 C 0.742188 -0.160156 0.773438 -0.195312 0.796875 -0.25 L 0.8125 -0.25 L 0.90625 -0.203125 C 0.875 -0.128906 0.828125 -0.0703125 0.765625 -0.03125 C 0.710938 0 0.632812 0.015625 0.53125 0.015625 C 0.445312 0.015625 0.367188 0 0.296875 -0.03125 C 0.234375 -0.0703125 0.1875 -0.128906 0.15625 -0.203125 C 0.125 -0.273438 0.109375 -0.363281 0.109375 -0.46875 C 0.109375 -0.570312 0.125 -0.660156 0.15625 -0.734375 C 0.195312 -0.804688 0.25 -0.859375 0.3125 -0.890625 C 0.375 -0.929688 0.445312 -0.953125 0.53125 -0.953125 C 0.644531 -0.953125 0.734375 -0.914062 0.796875 -0.84375 C 0.867188 -0.78125 0.90625 -0.679688 0.90625 -0.546875 C 0.90625 -0.492188 0.90625 -0.460938 0.90625 -0.453125 Z M 0.78125 -0.546875 C 0.769531 -0.648438 0.742188 -0.722656 0.703125 -0.765625 C 0.660156 -0.804688 0.601562 -0.828125 0.53125 -0.828125 C 0.445312 -0.828125 0.378906 -0.804688 0.328125 -0.765625 C 0.285156 -0.722656 0.257812 -0.648438 0.25 -0.546875 Z M 0.78125 -0.546875 "/></g></g><g transform="translate(16.132366, 23.729035)"><g><path d="M 0.75 0 L 0.0625 0 L 0.0625 -0.125 L 0.578125 -0.796875 L 0.578125 -0.828125 L 0.078125 -0.828125 L 0.078125 -0.9375 L 0.734375 -0.9375 L 0.734375 -0.8125 L 0.21875 -0.125 L 0.234375 -0.109375 L 0.75 -0.109375 Z M 0.75 0 "/></g></g><g transform="translate(16.949749, 23.729035)"><g/></g><g transform="translate(17.376727, 23.729035)"><g><path d="M 0.546875 0.015625 C 0.460938 0.015625 0.390625 0.00390625 0.328125 -0.015625 C 0.265625 -0.0351562 0.210938 -0.0625 0.171875 -0.09375 C 0.128906 -0.132812 0.0976562 -0.171875 0.078125 -0.203125 L 0.171875 -0.3125 L 0.1875 -0.3125 C 0.257812 -0.175781 0.378906 -0.109375 0.546875 -0.109375 C 0.640625 -0.109375 0.707031 -0.128906 0.75 -0.171875 C 0.789062 -0.210938 0.8125 -0.265625 0.8125 -0.328125 C 0.8125 -0.367188 0.800781 -0.40625 0.78125 -0.4375 C 0.769531 -0.46875 0.75 -0.492188 0.71875 -0.515625 C 0.6875 -0.535156 0.640625 -0.550781 0.578125 -0.5625 L 0.4375 -0.59375 C 0.332031 -0.625 0.253906 -0.664062 0.203125 -0.71875 C 0.148438 -0.78125 0.125 -0.851562 0.125 -0.9375 C 0.125 -1 0.140625 -1.050781 0.171875 -1.09375 C 0.203125 -1.144531 0.242188 -1.179688 0.296875 -1.203125 C 0.359375 -1.234375 0.4375 -1.25 0.53125 -1.25 C 0.625 -1.25 0.703125 -1.234375 0.765625 -1.203125 C 0.828125 -1.179688 0.878906 -1.144531 0.921875 -1.09375 L 0.84375 -1 L 0.828125 -1 C 0.785156 -1.039062 0.738281 -1.070312 0.6875 -1.09375 C 0.644531 -1.113281 0.59375 -1.125 0.53125 -1.125 C 0.4375 -1.125 0.367188 -1.109375 0.328125 -1.078125 C 0.285156 -1.046875 0.265625 -1 0.265625 -0.9375 C 0.265625 -0.882812 0.28125 -0.84375 0.3125 -0.8125 C 0.34375 -0.78125 0.394531 -0.753906 0.46875 -0.734375 L 0.625 -0.6875 C 0.738281 -0.664062 0.820312 -0.625 0.875 -0.5625 C 0.9375 -0.507812 0.96875 -0.4375 0.96875 -0.34375 C 0.96875 -0.269531 0.953125 -0.207031 0.921875 -0.15625 C 0.890625 -0.101562 0.84375 -0.0625 0.78125 -0.03125 C 0.71875 0 0.640625 0.015625 0.546875 0.015625 Z M 0.546875 0.015625 "/></g></g><g transform="translate(18.442472, 23.729035)"><g><path d="M 0.46875 0.015625 C 0.351562 0.015625 0.269531 -0.0078125 0.21875 -0.0625 C 0.164062 -0.125 0.140625 -0.207031 0.140625 -0.3125 L 0.140625 -0.9375 L 0.28125 -0.9375 L 0.28125 -0.3125 C 0.28125 -0.175781 0.347656 -0.109375 0.484375 -0.109375 C 0.566406 -0.109375 0.632812 -0.132812 0.6875 -0.1875 C 0.738281 -0.238281 0.765625 -0.328125 0.765625 -0.453125 L 0.765625 -0.9375 L 0.90625 -0.9375 L 0.90625 0 L 0.765625 0 L 0.765625 -0.140625 L 0.75 -0.15625 C 0.71875 -0.09375 0.675781 -0.046875 0.625 -0.015625 C 0.582031 0.00390625 0.53125 0.015625 0.46875 0.015625 Z M 0.46875 0.015625 "/></g></g><g transform="translate(19.508216, 23.729035)"><g><path d="M 0.625 0.015625 C 0.550781 0.015625 0.488281 0.00390625 0.4375 -0.015625 C 0.382812 -0.046875 0.34375 -0.0820312 0.3125 -0.125 L 0.296875 -0.125 L 0.296875 0 L 0.15625 0 L 0.15625 -1.3125 L 0.296875 -1.3125 L 0.296875 -0.796875 L 0.3125 -0.796875 C 0.382812 -0.898438 0.488281 -0.953125 0.625 -0.953125 C 0.707031 -0.953125 0.773438 -0.929688 0.828125 -0.890625 C 0.890625 -0.859375 0.9375 -0.804688 0.96875 -0.734375 C 1 -0.660156 1.015625 -0.570312 1.015625 -0.46875 C 1.015625 -0.363281 0.992188 -0.273438 0.953125 -0.203125 C 0.921875 -0.128906 0.875 -0.0703125 0.8125 -0.03125 C 0.757812 0 0.695312 0.015625 0.625 0.015625 Z M 0.59375 -0.109375 C 0.78125 -0.109375 0.875 -0.226562 0.875 -0.46875 C 0.875 -0.59375 0.847656 -0.679688 0.796875 -0.734375 C 0.742188 -0.796875 0.675781 -0.828125 0.59375 -0.828125 C 0.5 -0.828125 0.425781 -0.796875 0.375 -0.734375 C 0.320312 -0.679688 0.296875 -0.59375 0.296875 -0.46875 C 0.296875 -0.34375 0.320312 -0.25 0.375 -0.1875 C 0.425781 -0.132812 0.5 -0.109375 0.59375 -0.109375 Z M 0.59375 -0.109375 "/></g></g><g transform="translate(20.627545, 23.729035)"><g><path d="M 0.484375 0.015625 C 0.410156 0.015625 0.34375 0 0.28125 -0.03125 C 0.226562 -0.0703125 0.1875 -0.128906 0.15625 -0.203125 C 0.125 -0.273438 0.109375 -0.363281 0.109375 -0.46875 C 0.109375 -0.570312 0.125 -0.660156 0.15625 -0.734375 C 0.1875 -0.804688 0.226562 -0.859375 0.28125 -0.890625 C 0.34375 -0.929688 0.414062 -0.953125 0.5 -0.953125 C 0.5625 -0.953125 0.617188 -0.9375 0.671875 -0.90625 C 0.722656 -0.882812 0.765625 -0.847656 0.796875 -0.796875 L 0.8125 -0.796875 L 0.8125 -1.3125 L 0.953125 -1.3125 L 0.953125 0 L 0.8125 0 L 0.8125 -0.140625 L 0.796875 -0.140625 C 0.765625 -0.0859375 0.722656 -0.046875 0.671875 -0.015625 C 0.617188 0.00390625 0.554688 0.015625 0.484375 0.015625 Z M 0.53125 -0.109375 C 0.613281 -0.109375 0.679688 -0.132812 0.734375 -0.1875 C 0.785156 -0.25 0.8125 -0.34375 0.8125 -0.46875 C 0.8125 -0.59375 0.785156 -0.679688 0.734375 -0.734375 C 0.679688 -0.796875 0.613281 -0.828125 0.53125 -0.828125 C 0.4375 -0.828125 0.363281 -0.796875 0.3125 -0.734375 C 0.269531 -0.679688 0.25 -0.59375 0.25 -0.46875 C 0.25 -0.226562 0.34375 -0.109375 0.53125 -0.109375 Z M 0.53125 -0.109375 "/></g></g><g transform="translate(21.747725, 23.729035)"><g><path d="M 0.234375 -1.109375 C 0.203125 -1.109375 0.175781 -1.117188 0.15625 -1.140625 C 0.144531 -1.160156 0.140625 -1.1875 0.140625 -1.21875 C 0.140625 -1.238281 0.144531 -1.257812 0.15625 -1.28125 C 0.175781 -1.300781 0.203125 -1.3125 0.234375 -1.3125 C 0.265625 -1.3125 0.285156 -1.300781 0.296875 -1.28125 C 0.316406 -1.257812 0.328125 -1.238281 0.328125 -1.21875 C 0.328125 -1.1875 0.316406 -1.160156 0.296875 -1.140625 C 0.285156 -1.117188 0.265625 -1.109375 0.234375 -1.109375 Z M 0.15625 0 L 0.15625 -0.9375 L 0.296875 -0.9375 L 0.296875 0 Z M 0.15625 0 "/></g></g><g transform="translate(22.212978, 23.729035)"><g><path d="M 0.59375 0 L 0.40625 0 L 0.046875 -0.9375 L 0.1875 -0.9375 L 0.484375 -0.15625 L 0.515625 -0.15625 L 0.796875 -0.9375 L 0.9375 -0.9375 Z M 0.59375 0 "/></g></g><g transform="translate(23.207276, 23.729035)"><g><path d="M 0.234375 -1.109375 C 0.203125 -1.109375 0.175781 -1.117188 0.15625 -1.140625 C 0.144531 -1.160156 0.140625 -1.1875 0.140625 -1.21875 C 0.140625 -1.238281 0.144531 -1.257812 0.15625 -1.28125 C 0.175781 -1.300781 0.203125 -1.3125 0.234375 -1.3125 C 0.265625 -1.3125 0.285156 -1.300781 0.296875 -1.28125 C 0.316406 -1.257812 0.328125 -1.238281 0.328125 -1.21875 C 0.328125 -1.1875 0.316406 -1.160156 0.296875 -1.140625 C 0.285156 -1.117188 0.265625 -1.109375 0.234375 -1.109375 Z M 0.15625 0 L 0.15625 -0.9375 L 0.296875 -0.9375 L 0.296875 0 Z M 0.15625 0 "/></g></g><g transform="translate(23.672529, 23.729035)"><g><path d="M 0.421875 0.015625 C 0.367188 0.015625 0.316406 0.0078125 0.265625 0 C 0.210938 -0.0195312 0.164062 -0.0390625 0.125 -0.0625 C 0.09375 -0.09375 0.0703125 -0.125 0.0625 -0.15625 L 0.140625 -0.25 L 0.15625 -0.25 C 0.1875 -0.195312 0.222656 -0.160156 0.265625 -0.140625 C 0.316406 -0.117188 0.367188 -0.109375 0.421875 -0.109375 C 0.492188 -0.109375 0.546875 -0.117188 0.578125 -0.140625 C 0.617188 -0.171875 0.640625 -0.210938 0.640625 -0.265625 C 0.640625 -0.296875 0.628906 -0.320312 0.609375 -0.34375 C 0.585938 -0.375 0.550781 -0.394531 0.5 -0.40625 L 0.34375 -0.4375 C 0.257812 -0.457031 0.195312 -0.488281 0.15625 -0.53125 C 0.113281 -0.582031 0.09375 -0.640625 0.09375 -0.703125 C 0.09375 -0.753906 0.101562 -0.796875 0.125 -0.828125 C 0.15625 -0.867188 0.195312 -0.898438 0.25 -0.921875 C 0.300781 -0.941406 0.359375 -0.953125 0.421875 -0.953125 C 0.503906 -0.953125 0.570312 -0.9375 0.625 -0.90625 C 0.675781 -0.882812 0.71875 -0.851562 0.75 -0.8125 L 0.671875 -0.734375 L 0.640625 -0.734375 C 0.617188 -0.773438 0.585938 -0.800781 0.546875 -0.8125 C 0.515625 -0.832031 0.472656 -0.84375 0.421875 -0.84375 C 0.359375 -0.84375 0.3125 -0.828125 0.28125 -0.796875 C 0.25 -0.773438 0.234375 -0.742188 0.234375 -0.703125 C 0.234375 -0.671875 0.242188 -0.640625 0.265625 -0.609375 C 0.285156 -0.585938 0.328125 -0.570312 0.390625 -0.5625 L 0.546875 -0.515625 C 0.628906 -0.503906 0.6875 -0.472656 0.71875 -0.421875 C 0.757812 -0.378906 0.78125 -0.328125 0.78125 -0.265625 C 0.78125 -0.203125 0.765625 -0.148438 0.734375 -0.109375 C 0.710938 -0.0664062 0.675781 -0.0351562 0.625 -0.015625 C 0.570312 0.00390625 0.503906 0.015625 0.421875 0.015625 Z M 0.421875 0.015625 "/></g></g><g transform="translate(24.540095, 23.729035)"><g><path d="M 0.234375 -1.109375 C 0.203125 -1.109375 0.175781 -1.117188 0.15625 -1.140625 C 0.144531 -1.160156 0.140625 -1.1875 0.140625 -1.21875 C 0.140625 -1.238281 0.144531 -1.257812 0.15625 -1.28125 C 0.175781 -1.300781 0.203125 -1.3125 0.234375 -1.3125 C 0.265625 -1.3125 0.285156 -1.300781 0.296875 -1.28125 C 0.316406 -1.257812 0.328125 -1.238281 0.328125 -1.21875 C 0.328125 -1.1875 0.316406 -1.160156 0.296875 -1.140625 C 0.285156 -1.117188 0.265625 -1.109375 0.234375 -1.109375 Z M 0.15625 0 L 0.15625 -0.9375 L 0.296875 -0.9375 L 0.296875 0 Z M 0.15625 0 "/></g></g><g transform="translate(25.005348, 23.729035)"><g><path d="M 0.53125 0.015625 C 0.445312 0.015625 0.367188 0 0.296875 -0.03125 C 0.234375 -0.0703125 0.1875 -0.128906 0.15625 -0.203125 C 0.125 -0.273438 0.109375 -0.363281 0.109375 -0.46875 C 0.109375 -0.570312 0.125 -0.660156 0.15625 -0.734375 C 0.1875 -0.804688 0.234375 -0.859375 0.296875 -0.890625 C 0.367188 -0.929688 0.445312 -0.953125 0.53125 -0.953125 C 0.625 -0.953125 0.703125 -0.929688 0.765625 -0.890625 C 0.828125 -0.859375 0.875 -0.804688 0.90625 -0.734375 C 0.945312 -0.660156 0.96875 -0.570312 0.96875 -0.46875 C 0.96875 -0.363281 0.945312 -0.273438 0.90625 -0.203125 C 0.875 -0.128906 0.828125 -0.0703125 0.765625 -0.03125 C 0.703125 0 0.625 0.015625 0.53125 0.015625 Z M 0.53125 -0.109375 C 0.625 -0.109375 0.695312 -0.132812 0.75 -0.1875 C 0.800781 -0.25 0.828125 -0.34375 0.828125 -0.46875 C 0.828125 -0.59375 0.800781 -0.679688 0.75 -0.734375 C 0.695312 -0.796875 0.625 -0.828125 0.53125 -0.828125 C 0.4375 -0.828125 0.363281 -0.796875 0.3125 -0.734375 C 0.269531 -0.679688 0.25 -0.59375 0.25 -0.46875 C 0.25 -0.34375 0.269531 -0.25 0.3125 -0.1875 C 0.363281 -0.132812 0.4375 -0.109375 0.53125 -0.109375 Z M 0.53125 -0.109375 "/></g></g><g transform="translate(26.082149, 23.729035)"><g><path d="M 0.15625 0 L 0.15625 -0.9375 L 0.296875 -0.9375 L 0.296875 -0.78125 L 0.3125 -0.78125 C 0.34375 -0.832031 0.378906 -0.875 0.421875 -0.90625 C 0.472656 -0.9375 0.535156 -0.953125 0.609375 -0.953125 C 0.722656 -0.953125 0.800781 -0.921875 0.84375 -0.859375 C 0.894531 -0.804688 0.921875 -0.71875 0.921875 -0.59375 L 0.921875 0 L 0.796875 0 L 0.796875 -0.59375 C 0.796875 -0.65625 0.785156 -0.703125 0.765625 -0.734375 C 0.753906 -0.765625 0.734375 -0.785156 0.703125 -0.796875 C 0.671875 -0.816406 0.628906 -0.828125 0.578125 -0.828125 C 0.492188 -0.828125 0.425781 -0.800781 0.375 -0.75 C 0.320312 -0.695312 0.296875 -0.609375 0.296875 -0.484375 L 0.296875 0 Z M 0.15625 0 "/></g></g><g transform="translate(27.162353, 23.729035)"><g><path d="M 0.046875 0.265625 C 0.0976562 0.222656 0.140625 0.179688 0.171875 0.140625 C 0.210938 0.0976562 0.234375 0.0507812 0.234375 0 C 0.203125 0 0.175781 -0.00390625 0.15625 -0.015625 C 0.132812 -0.0351562 0.125 -0.0625 0.125 -0.09375 C 0.125 -0.125 0.128906 -0.144531 0.140625 -0.15625 C 0.160156 -0.175781 0.1875 -0.1875 0.21875 -0.1875 C 0.257812 -0.1875 0.289062 -0.175781 0.3125 -0.15625 C 0.332031 -0.132812 0.34375 -0.0976562 0.34375 -0.046875 C 0.34375 0.0351562 0.320312 0.109375 0.28125 0.171875 C 0.238281 0.234375 0.179688 0.289062 0.109375 0.34375 Z M 0.046875 0.265625 "/></g></g></g><g fill="#000000" fill-opacity="1"><g transform="translate(1.778981, 26.051615)"><g><path d="M 0.328125 0 L 0.1875 0 L 0.1875 -1.234375 L 0.40625 -1.234375 L 0.78125 -0.1875 L 0.796875 -0.1875 L 1.171875 -1.234375 L 1.375 -1.234375 L 1.375 0 L 1.234375 0 L 1.234375 -1.015625 L 1.21875 -1.015625 L 0.859375 0 L 0.703125 0 L 0.34375 -1.015625 L 0.328125 -1.015625 Z M 0.328125 0 "/></g></g><g transform="translate(3.353357, 26.051615)"><g><path d="M 0.390625 0.015625 C 0.296875 0.015625 0.222656 -0.00390625 0.171875 -0.046875 C 0.117188 -0.0976562 0.09375 -0.171875 0.09375 -0.265625 C 0.09375 -0.316406 0.101562 -0.359375 0.125 -0.390625 C 0.144531 -0.429688 0.179688 -0.460938 0.234375 -0.484375 C 0.285156 -0.515625 0.347656 -0.535156 0.421875 -0.546875 C 0.484375 -0.554688 0.53125 -0.566406 0.5625 -0.578125 C 0.601562 -0.597656 0.628906 -0.613281 0.640625 -0.625 C 0.660156 -0.644531 0.671875 -0.671875 0.671875 -0.703125 C 0.671875 -0.742188 0.65625 -0.773438 0.625 -0.796875 C 0.59375 -0.816406 0.546875 -0.828125 0.484375 -0.828125 C 0.421875 -0.828125 0.367188 -0.816406 0.328125 -0.796875 C 0.285156 -0.773438 0.242188 -0.738281 0.203125 -0.6875 L 0.1875 -0.6875 L 0.125 -0.78125 C 0.164062 -0.832031 0.210938 -0.875 0.265625 -0.90625 C 0.328125 -0.9375 0.398438 -0.953125 0.484375 -0.953125 C 0.585938 -0.953125 0.664062 -0.925781 0.71875 -0.875 C 0.769531 -0.832031 0.796875 -0.765625 0.796875 -0.671875 L 0.796875 -0.1875 C 0.796875 -0.132812 0.820312 -0.109375 0.875 -0.109375 C 0.882812 -0.109375 0.894531 -0.109375 0.90625 -0.109375 L 0.921875 -0.109375 L 0.9375 -0.015625 C 0.925781 -0.00390625 0.910156 0 0.890625 0 C 0.878906 0 0.863281 0 0.84375 0 C 0.789062 0 0.75 -0.0078125 0.71875 -0.03125 C 0.695312 -0.0507812 0.6875 -0.0820312 0.6875 -0.125 L 0.65625 -0.125 C 0.632812 -0.0820312 0.597656 -0.046875 0.546875 -0.015625 C 0.503906 0.00390625 0.453125 0.015625 0.390625 0.015625 Z M 0.421875 -0.09375 C 0.472656 -0.09375 0.515625 -0.101562 0.546875 -0.125 C 0.585938 -0.15625 0.617188 -0.191406 0.640625 -0.234375 C 0.660156 -0.273438 0.671875 -0.320312 0.671875 -0.375 L 0.671875 -0.5 L 0.65625 -0.5 C 0.632812 -0.488281 0.609375 -0.476562 0.578125 -0.46875 C 0.546875 -0.457031 0.503906 -0.445312 0.453125 -0.4375 C 0.398438 -0.425781 0.359375 -0.410156 0.328125 -0.390625 C 0.296875 -0.378906 0.269531 -0.363281 0.25 -0.34375 C 0.238281 -0.320312 0.234375 -0.296875 0.234375 -0.265625 C 0.234375 -0.203125 0.25 -0.15625 0.28125 -0.125 C 0.3125 -0.101562 0.359375 -0.09375 0.421875 -0.09375 Z M 0.421875 -0.09375 "/></g></g><g transform="translate(4.323839, 26.051615)"><g><path d="M 0.15625 0 L 0.15625 -0.9375 L 0.296875 -0.9375 L 0.296875 -0.78125 L 0.3125 -0.78125 C 0.351562 -0.882812 0.4375 -0.9375 0.5625 -0.9375 C 0.625 -0.9375 0.671875 -0.925781 0.703125 -0.90625 L 0.671875 -0.796875 L 0.640625 -0.78125 C 0.609375 -0.800781 0.570312 -0.8125 0.53125 -0.8125 C 0.457031 -0.8125 0.398438 -0.78125 0.359375 -0.71875 C 0.316406 -0.664062 0.296875 -0.578125 0.296875 -0.453125 L 0.296875 0 Z M 0.15625 0 "/></g></g><g transform="translate(5.048511, 26.051615)"><g><path d="M 0.625 -0.140625 L 0.671875 -0.046875 C 0.648438 -0.0234375 0.617188 -0.0078125 0.578125 0 C 0.546875 0.0078125 0.507812 0.015625 0.46875 0.015625 C 0.289062 0.015625 0.203125 -0.0703125 0.203125 -0.25 L 0.203125 -0.828125 L 0.046875 -0.828125 L 0.046875 -0.9375 L 0.203125 -0.9375 L 0.203125 -1.125 L 0.34375 -1.15625 L 0.34375 -0.9375 L 0.640625 -0.9375 L 0.640625 -0.828125 L 0.34375 -0.828125 L 0.34375 -0.265625 C 0.34375 -0.160156 0.390625 -0.109375 0.484375 -0.109375 C 0.535156 -0.109375 0.578125 -0.117188 0.609375 -0.140625 Z M 0.625 -0.140625 "/></g></g><g transform="translate(5.762977, 26.051615)"><g><path d="M 0.234375 -1.109375 C 0.203125 -1.109375 0.175781 -1.117188 0.15625 -1.140625 C 0.144531 -1.160156 0.140625 -1.1875 0.140625 -1.21875 C 0.140625 -1.238281 0.144531 -1.257812 0.15625 -1.28125 C 0.175781 -1.300781 0.203125 -1.3125 0.234375 -1.3125 C 0.265625 -1.3125 0.285156 -1.300781 0.296875 -1.28125 C 0.316406 -1.257812 0.328125 -1.238281 0.328125 -1.21875 C 0.328125 -1.1875 0.316406 -1.160156 0.296875 -1.140625 C 0.285156 -1.117188 0.265625 -1.109375 0.234375 -1.109375 Z M 0.15625 0 L 0.15625 -0.9375 L 0.296875 -0.9375 L 0.296875 0 Z M 0.15625 0 "/></g></g><g transform="translate(6.22823, 26.051615)"><g><path d="M 0.15625 0 L 0.15625 -0.9375 L 0.296875 -0.9375 L 0.296875 -0.78125 L 0.3125 -0.78125 C 0.34375 -0.832031 0.378906 -0.875 0.421875 -0.90625 C 0.472656 -0.9375 0.535156 -0.953125 0.609375 -0.953125 C 0.722656 -0.953125 0.800781 -0.921875 0.84375 -0.859375 C 0.894531 -0.804688 0.921875 -0.71875 0.921875 -0.59375 L 0.921875 0 L 0.796875 0 L 0.796875 -0.59375 C 0.796875 -0.65625 0.785156 -0.703125 0.765625 -0.734375 C 0.753906 -0.765625 0.734375 -0.785156 0.703125 -0.796875 C 0.671875 -0.816406 0.628906 -0.828125 0.578125 -0.828125 C 0.492188 -0.828125 0.425781 -0.800781 0.375 -0.75 C 0.320312 -0.695312 0.296875 -0.609375 0.296875 -0.484375 L 0.296875 0 Z M 0.15625 0 "/></g></g><g transform="translate(7.308434, 26.051615)"><g><path d="M 0.890625 -0.4375 L 0.25 -0.4375 C 0.25 -0.320312 0.273438 -0.238281 0.328125 -0.1875 C 0.378906 -0.132812 0.445312 -0.109375 0.53125 -0.109375 C 0.601562 -0.109375 0.660156 -0.117188 0.703125 -0.140625 C 0.742188 -0.160156 0.773438 -0.195312 0.796875 -0.25 L 0.8125 -0.25 L 0.90625 -0.203125 C 0.875 -0.128906 0.828125 -0.0703125 0.765625 -0.03125 C 0.710938 0 0.632812 0.015625 0.53125 0.015625 C 0.445312 0.015625 0.367188 0 0.296875 -0.03125 C 0.234375 -0.0703125 0.1875 -0.128906 0.15625 -0.203125 C 0.125 -0.273438 0.109375 -0.363281 0.109375 -0.46875 C 0.109375 -0.570312 0.125 -0.660156 0.15625 -0.734375 C 0.195312 -0.804688 0.25 -0.859375 0.3125 -0.890625 C 0.375 -0.929688 0.445312 -0.953125 0.53125 -0.953125 C 0.644531 -0.953125 0.734375 -0.914062 0.796875 -0.84375 C 0.867188 -0.78125 0.90625 -0.679688 0.90625 -0.546875 C 0.90625 -0.492188 0.90625 -0.460938 0.90625 -0.453125 Z M 0.78125 -0.546875 C 0.769531 -0.648438 0.742188 -0.722656 0.703125 -0.765625 C 0.660156 -0.804688 0.601562 -0.828125 0.53125 -0.828125 C 0.445312 -0.828125 0.378906 -0.804688 0.328125 -0.765625 C 0.285156 -0.722656 0.257812 -0.648438 0.25 -0.546875 Z M 0.78125 -0.546875 "/></g></g><g transform="translate(8.308685, 26.051615)"><g><path d="M 0.75 0 L 0.0625 0 L 0.0625 -0.125 L 0.578125 -0.796875 L 0.578125 -0.828125 L 0.078125 -0.828125 L 0.078125 -0.9375 L 0.734375 -0.9375 L 0.734375 -0.8125 L 0.21875 -0.125 L 0.234375 -0.109375 L 0.75 -0.109375 Z M 0.75 0 "/></g></g><g transform="translate(9.126068, 26.051615)"><g/></g><g transform="translate(9.553046, 26.051615)"><g><path d="M 1.109375 0 L 0.953125 0 L 0.84375 -0.34375 L 0.3125 -0.34375 L 0.203125 0 L 0.046875 0 L 0.484375 -1.234375 L 0.6875 -1.234375 Z M 0.5625 -1.09375 L 0.359375 -0.46875 L 0.796875 -0.46875 L 0.59375 -1.09375 Z M 0.5625 -1.09375 "/></g></g><g transform="translate(10.721708, 26.051615)"><g><path d="M 0.59375 0 L 0.40625 0 L 0.046875 -0.9375 L 0.1875 -0.9375 L 0.484375 -0.15625 L 0.515625 -0.15625 L 0.796875 -0.9375 L 0.9375 -0.9375 Z M 0.59375 0 "/></g></g><g transform="translate(11.716006, 26.051615)"><g><path d="M 0.890625 -0.4375 L 0.25 -0.4375 C 0.25 -0.320312 0.273438 -0.238281 0.328125 -0.1875 C 0.378906 -0.132812 0.445312 -0.109375 0.53125 -0.109375 C 0.601562 -0.109375 0.660156 -0.117188 0.703125 -0.140625 C 0.742188 -0.160156 0.773438 -0.195312 0.796875 -0.25 L 0.8125 -0.25 L 0.90625 -0.203125 C 0.875 -0.128906 0.828125 -0.0703125 0.765625 -0.03125 C 0.710938 0 0.632812 0.015625 0.53125 0.015625 C 0.445312 0.015625 0.367188 0 0.296875 -0.03125 C 0.234375 -0.0703125 0.1875 -0.128906 0.15625 -0.203125 C 0.125 -0.273438 0.109375 -0.363281 0.109375 -0.46875 C 0.109375 -0.570312 0.125 -0.660156 0.15625 -0.734375 C 0.195312 -0.804688 0.25 -0.859375 0.3125 -0.890625 C 0.375 -0.929688 0.445312 -0.953125 0.53125 -0.953125 C 0.644531 -0.953125 0.734375 -0.914062 0.796875 -0.84375 C 0.867188 -0.78125 0.90625 -0.679688 0.90625 -0.546875 C 0.90625 -0.492188 0.90625 -0.460938 0.90625 -0.453125 Z M 0.78125 -0.546875 C 0.769531 -0.648438 0.742188 -0.722656 0.703125 -0.765625 C 0.660156 -0.804688 0.601562 -0.828125 0.53125 -0.828125 C 0.445312 -0.828125 0.378906 -0.804688 0.328125 -0.765625 C 0.285156 -0.722656 0.257812 -0.648438 0.25 -0.546875 Z M 0.78125 -0.546875 "/></g></g><g transform="translate(12.716257, 26.051615)"><g><path d="M 0.15625 0 L 0.15625 -0.9375 L 0.296875 -0.9375 L 0.296875 -0.78125 L 0.3125 -0.78125 C 0.34375 -0.832031 0.378906 -0.875 0.421875 -0.90625 C 0.472656 -0.9375 0.535156 -0.953125 0.609375 -0.953125 C 0.722656 -0.953125 0.800781 -0.921875 0.84375 -0.859375 C 0.894531 -0.804688 0.921875 -0.71875 0.921875 -0.59375 L 0.921875 0 L 0.796875 0 L 0.796875 -0.59375 C 0.796875 -0.65625 0.785156 -0.703125 0.765625 -0.734375 C 0.753906 -0.765625 0.734375 -0.785156 0.703125 -0.796875 C 0.671875 -0.816406 0.628906 -0.828125 0.578125 -0.828125 C 0.492188 -0.828125 0.425781 -0.800781 0.375 -0.75 C 0.320312 -0.695312 0.296875 -0.609375 0.296875 -0.484375 L 0.296875 0 Z M 0.15625 0 "/></g></g><g transform="translate(13.796461, 26.051615)"><g><path d="M 0.46875 0.015625 C 0.351562 0.015625 0.269531 -0.0078125 0.21875 -0.0625 C 0.164062 -0.125 0.140625 -0.207031 0.140625 -0.3125 L 0.140625 -0.9375 L 0.28125 -0.9375 L 0.28125 -0.3125 C 0.28125 -0.175781 0.347656 -0.109375 0.484375 -0.109375 C 0.566406 -0.109375 0.632812 -0.132812 0.6875 -0.1875 C 0.738281 -0.238281 0.765625 -0.328125 0.765625 -0.453125 L 0.765625 -0.9375 L 0.90625 -0.9375 L 0.90625 0 L 0.765625 0 L 0.765625 -0.140625 L 0.75 -0.15625 C 0.71875 -0.09375 0.675781 -0.046875 0.625 -0.015625 C 0.582031 0.00390625 0.53125 0.015625 0.46875 0.015625 Z M 0.46875 0.015625 "/></g></g><g transform="translate(14.862205, 26.051615)"><g><path d="M 0.890625 -0.4375 L 0.25 -0.4375 C 0.25 -0.320312 0.273438 -0.238281 0.328125 -0.1875 C 0.378906 -0.132812 0.445312 -0.109375 0.53125 -0.109375 C 0.601562 -0.109375 0.660156 -0.117188 0.703125 -0.140625 C 0.742188 -0.160156 0.773438 -0.195312 0.796875 -0.25 L 0.8125 -0.25 L 0.90625 -0.203125 C 0.875 -0.128906 0.828125 -0.0703125 0.765625 -0.03125 C 0.710938 0 0.632812 0.015625 0.53125 0.015625 C 0.445312 0.015625 0.367188 0 0.296875 -0.03125 C 0.234375 -0.0703125 0.1875 -0.128906 0.15625 -0.203125 C 0.125 -0.273438 0.109375 -0.363281 0.109375 -0.46875 C 0.109375 -0.570312 0.125 -0.660156 0.15625 -0.734375 C 0.195312 -0.804688 0.25 -0.859375 0.3125 -0.890625 C 0.375 -0.929688 0.445312 -0.953125 0.53125 -0.953125 C 0.644531 -0.953125 0.734375 -0.914062 0.796875 -0.84375 C 0.867188 -0.78125 0.90625 -0.679688 0.90625 -0.546875 C 0.90625 -0.492188 0.90625 -0.460938 0.90625 -0.453125 Z M 0.78125 -0.546875 C 0.769531 -0.648438 0.742188 -0.722656 0.703125 -0.765625 C 0.660156 -0.804688 0.601562 -0.828125 0.53125 -0.828125 C 0.445312 -0.828125 0.378906 -0.804688 0.328125 -0.765625 C 0.285156 -0.722656 0.257812 -0.648438 0.25 -0.546875 Z M 0.78125 -0.546875 "/></g></g><g transform="translate(15.862457, 26.051615)"><g><path d="M 0.046875 0.265625 C 0.0976562 0.222656 0.140625 0.179688 0.171875 0.140625 C 0.210938 0.0976562 0.234375 0.0507812 0.234375 0 C 0.203125 0 0.175781 -0.00390625 0.15625 -0.015625 C 0.132812 -0.0351562 0.125 -0.0625 0.125 -0.09375 C 0.125 -0.125 0.128906 -0.144531 0.140625 -0.15625 C 0.160156 -0.175781 0.1875 -0.1875 0.21875 -0.1875 C 0.257812 -0.1875 0.289062 -0.175781 0.3125 -0.15625 C 0.332031 -0.132812 0.34375 -0.0976562 0.34375 -0.046875 C 0.34375 0.0351562 0.320312 0.109375 0.28125 0.171875 C 0.238281 0.234375 0.179688 0.289062 0.109375 0.34375 Z M 0.046875 0.265625 "/></g></g><g transform="translate(16.324308, 26.051615)"><g/></g><g transform="translate(16.751286, 26.051615)"><g><path d="M 0.59375 -1.234375 C 0.71875 -1.234375 0.820312 -1.210938 0.90625 -1.171875 C 1 -1.128906 1.066406 -1.0625 1.109375 -0.96875 C 1.160156 -0.875 1.1875 -0.757812 1.1875 -0.625 C 1.1875 -0.476562 1.160156 -0.359375 1.109375 -0.265625 C 1.066406 -0.179688 1 -0.113281 0.90625 -0.0625 C 0.820312 -0.0195312 0.71875 0 0.59375 0 L 0.1875 0 L 0.1875 -1.234375 Z M 0.578125 -0.125 C 0.679688 -0.125 0.765625 -0.140625 0.828125 -0.171875 C 0.898438 -0.203125 0.953125 -0.253906 0.984375 -0.328125 C 1.015625 -0.398438 1.03125 -0.5 1.03125 -0.625 C 1.03125 -0.738281 1.015625 -0.832031 0.984375 -0.90625 C 0.953125 -0.976562 0.898438 -1.03125 0.828125 -1.0625 C 0.765625 -1.09375 0.679688 -1.109375 0.578125 -1.109375 L 0.328125 -1.109375 L 0.328125 -0.125 Z M 0.578125 -0.125 "/></g></g><g transform="translate(18.073048, 26.051615)"><g><path d="M 0.390625 0.015625 C 0.296875 0.015625 0.222656 -0.00390625 0.171875 -0.046875 C 0.117188 -0.0976562 0.09375 -0.171875 0.09375 -0.265625 C 0.09375 -0.316406 0.101562 -0.359375 0.125 -0.390625 C 0.144531 -0.429688 0.179688 -0.460938 0.234375 -0.484375 C 0.285156 -0.515625 0.347656 -0.535156 0.421875 -0.546875 C 0.484375 -0.554688 0.53125 -0.566406 0.5625 -0.578125 C 0.601562 -0.597656 0.628906 -0.613281 0.640625 -0.625 C 0.660156 -0.644531 0.671875 -0.671875 0.671875 -0.703125 C 0.671875 -0.742188 0.65625 -0.773438 0.625 -0.796875 C 0.59375 -0.816406 0.546875 -0.828125 0.484375 -0.828125 C 0.421875 -0.828125 0.367188 -0.816406 0.328125 -0.796875 C 0.285156 -0.773438 0.242188 -0.738281 0.203125 -0.6875 L 0.1875 -0.6875 L 0.125 -0.78125 C 0.164062 -0.832031 0.210938 -0.875 0.265625 -0.90625 C 0.328125 -0.9375 0.398438 -0.953125 0.484375 -0.953125 C 0.585938 -0.953125 0.664062 -0.925781 0.71875 -0.875 C 0.769531 -0.832031 0.796875 -0.765625 0.796875 -0.671875 L 0.796875 -0.1875 C 0.796875 -0.132812 0.820312 -0.109375 0.875 -0.109375 C 0.882812 -0.109375 0.894531 -0.109375 0.90625 -0.109375 L 0.921875 -0.109375 L 0.9375 -0.015625 C 0.925781 -0.00390625 0.910156 0 0.890625 0 C 0.878906 0 0.863281 0 0.84375 0 C 0.789062 0 0.75 -0.0078125 0.71875 -0.03125 C 0.695312 -0.0507812 0.6875 -0.0820312 0.6875 -0.125 L 0.65625 -0.125 C 0.632812 -0.0820312 0.597656 -0.046875 0.546875 -0.015625 C 0.503906 0.00390625 0.453125 0.015625 0.390625 0.015625 Z M 0.421875 -0.09375 C 0.472656 -0.09375 0.515625 -0.101562 0.546875 -0.125 C 0.585938 -0.15625 0.617188 -0.191406 0.640625 -0.234375 C 0.660156 -0.273438 0.671875 -0.320312 0.671875 -0.375 L 0.671875 -0.5 L 0.65625 -0.5 C 0.632812 -0.488281 0.609375 -0.476562 0.578125 -0.46875 C 0.546875 -0.457031 0.503906 -0.445312 0.453125 -0.4375 C 0.398438 -0.425781 0.359375 -0.410156 0.328125 -0.390625 C 0.296875 -0.378906 0.269531 -0.363281 0.25 -0.34375 C 0.238281 -0.320312 0.234375 -0.296875 0.234375 -0.265625 C 0.234375 -0.203125 0.25 -0.15625 0.28125 -0.125 C 0.3125 -0.101562 0.359375 -0.09375 0.421875 -0.09375 Z M 0.421875 -0.09375 "/></g></g><g transform="translate(19.04353, 26.051615)"><g><path d="M 0.15625 0 L 0.15625 -1.3125 L 0.296875 -1.3125 L 0.296875 -0.796875 L 0.3125 -0.796875 C 0.382812 -0.898438 0.484375 -0.953125 0.609375 -0.953125 C 0.722656 -0.953125 0.800781 -0.921875 0.84375 -0.859375 C 0.894531 -0.804688 0.921875 -0.71875 0.921875 -0.59375 L 0.921875 0 L 0.796875 0 L 0.796875 -0.59375 C 0.796875 -0.65625 0.785156 -0.703125 0.765625 -0.734375 C 0.753906 -0.765625 0.734375 -0.785156 0.703125 -0.796875 C 0.671875 -0.816406 0.628906 -0.828125 0.578125 -0.828125 C 0.492188 -0.828125 0.425781 -0.800781 0.375 -0.75 C 0.320312 -0.695312 0.296875 -0.609375 0.296875 -0.484375 L 0.296875 0 Z M 0.15625 0 "/></g></g><g transform="translate(20.123734, 26.051615)"><g><path d="M 0.234375 -1.109375 C 0.203125 -1.109375 0.175781 -1.117188 0.15625 -1.140625 C 0.144531 -1.160156 0.140625 -1.1875 0.140625 -1.21875 C 0.140625 -1.238281 0.144531 -1.257812 0.15625 -1.28125 C 0.175781 -1.300781 0.203125 -1.3125 0.234375 -1.3125 C 0.265625 -1.3125 0.285156 -1.300781 0.296875 -1.28125 C 0.316406 -1.257812 0.328125 -1.238281 0.328125 -1.21875 C 0.328125 -1.1875 0.316406 -1.160156 0.296875 -1.140625 C 0.285156 -1.117188 0.265625 -1.109375 0.234375 -1.109375 Z M 0.15625 0 L 0.15625 -0.9375 L 0.296875 -0.9375 L 0.296875 0 Z M 0.15625 0 "/></g></g><g transform="translate(20.588987, 26.051615)"><g><path d="M 0.53125 0.015625 C 0.445312 0.015625 0.375 0 0.3125 -0.03125 C 0.25 -0.0703125 0.195312 -0.128906 0.15625 -0.203125 C 0.125 -0.273438 0.109375 -0.363281 0.109375 -0.46875 C 0.109375 -0.570312 0.125 -0.660156 0.15625 -0.734375 C 0.195312 -0.804688 0.25 -0.859375 0.3125 -0.890625 C 0.375 -0.929688 0.445312 -0.953125 0.53125 -0.953125 C 0.632812 -0.953125 0.710938 -0.929688 0.765625 -0.890625 C 0.828125 -0.859375 0.875 -0.8125 0.90625 -0.75 L 0.796875 -0.671875 L 0.78125 -0.671875 C 0.757812 -0.722656 0.726562 -0.757812 0.6875 -0.78125 C 0.644531 -0.8125 0.59375 -0.828125 0.53125 -0.828125 C 0.476562 -0.828125 0.425781 -0.8125 0.375 -0.78125 C 0.332031 -0.757812 0.300781 -0.71875 0.28125 -0.65625 C 0.257812 -0.601562 0.25 -0.539062 0.25 -0.46875 C 0.25 -0.382812 0.257812 -0.316406 0.28125 -0.265625 C 0.300781 -0.210938 0.332031 -0.171875 0.375 -0.140625 C 0.425781 -0.117188 0.476562 -0.109375 0.53125 -0.109375 C 0.601562 -0.109375 0.660156 -0.117188 0.703125 -0.140625 C 0.742188 -0.171875 0.773438 -0.21875 0.796875 -0.28125 L 0.8125 -0.28125 L 0.90625 -0.234375 C 0.882812 -0.160156 0.84375 -0.0976562 0.78125 -0.046875 C 0.71875 -0.00390625 0.632812 0.015625 0.53125 0.015625 Z M 0.53125 0.015625 "/></g></g><g transform="translate(21.556067, 26.051615)"><g><path d="M 0.390625 0.015625 C 0.296875 0.015625 0.222656 -0.00390625 0.171875 -0.046875 C 0.117188 -0.0976562 0.09375 -0.171875 0.09375 -0.265625 C 0.09375 -0.316406 0.101562 -0.359375 0.125 -0.390625 C 0.144531 -0.429688 0.179688 -0.460938 0.234375 -0.484375 C 0.285156 -0.515625 0.347656 -0.535156 0.421875 -0.546875 C 0.484375 -0.554688 0.53125 -0.566406 0.5625 -0.578125 C 0.601562 -0.597656 0.628906 -0.613281 0.640625 -0.625 C 0.660156 -0.644531 0.671875 -0.671875 0.671875 -0.703125 C 0.671875 -0.742188 0.65625 -0.773438 0.625 -0.796875 C 0.59375 -0.816406 0.546875 -0.828125 0.484375 -0.828125 C 0.421875 -0.828125 0.367188 -0.816406 0.328125 -0.796875 C 0.285156 -0.773438 0.242188 -0.738281 0.203125 -0.6875 L 0.1875 -0.6875 L 0.125 -0.78125 C 0.164062 -0.832031 0.210938 -0.875 0.265625 -0.90625 C 0.328125 -0.9375 0.398438 -0.953125 0.484375 -0.953125 C 0.585938 -0.953125 0.664062 -0.925781 0.71875 -0.875 C 0.769531 -0.832031 0.796875 -0.765625 0.796875 -0.671875 L 0.796875 -0.1875 C 0.796875 -0.132812 0.820312 -0.109375 0.875 -0.109375 C 0.882812 -0.109375 0.894531 -0.109375 0.90625 -0.109375 L 0.921875 -0.109375 L 0.9375 -0.015625 C 0.925781 -0.00390625 0.910156 0 0.890625 0 C 0.878906 0 0.863281 0 0.84375 0 C 0.789062 0 0.75 -0.0078125 0.71875 -0.03125 C 0.695312 -0.0507812 0.6875 -0.0820312 0.6875 -0.125 L 0.65625 -0.125 C 0.632812 -0.0820312 0.597656 -0.046875 0.546875 -0.015625 C 0.503906 0.00390625 0.453125 0.015625 0.390625 0.015625 Z M 0.421875 -0.09375 C 0.472656 -0.09375 0.515625 -0.101562 0.546875 -0.125 C 0.585938 -0.15625 0.617188 -0.191406 0.640625 -0.234375 C 0.660156 -0.273438 0.671875 -0.320312 0.671875 -0.375 L 0.671875 -0.5 L 0.65625 -0.5 C 0.632812 -0.488281 0.609375 -0.476562 0.578125 -0.46875 C 0.546875 -0.457031 0.503906 -0.445312 0.453125 -0.4375 C 0.398438 -0.425781 0.359375 -0.410156 0.328125 -0.390625 C 0.296875 -0.378906 0.269531 -0.363281 0.25 -0.34375 C 0.238281 -0.320312 0.234375 -0.296875 0.234375 -0.265625 C 0.234375 -0.203125 0.25 -0.15625 0.28125 -0.125 C 0.3125 -0.101562 0.359375 -0.09375 0.421875 -0.09375 Z M 0.421875 -0.09375 "/></g></g><g transform="translate(22.526549, 26.051615)"><g><path d="M 0.15625 0 L 0.15625 -0.9375 L 0.296875 -0.9375 L 0.296875 -0.78125 L 0.3125 -0.78125 C 0.34375 -0.832031 0.378906 -0.875 0.421875 -0.90625 C 0.472656 -0.9375 0.535156 -0.953125 0.609375 -0.953125 C 0.722656 -0.953125 0.800781 -0.921875 0.84375 -0.859375 C 0.894531 -0.804688 0.921875 -0.71875 0.921875 -0.59375 L 0.921875 0 L 0.796875 0 L 0.796875 -0.59375 C 0.796875 -0.65625 0.785156 -0.703125 0.765625 -0.734375 C 0.753906 -0.765625 0.734375 -0.785156 0.703125 -0.796875 C 0.671875 -0.816406 0.628906 -0.828125 0.578125 -0.828125 C 0.492188 -0.828125 0.425781 -0.800781 0.375 -0.75 C 0.320312 -0.695312 0.296875 -0.609375 0.296875 -0.484375 L 0.296875 0 Z M 0.15625 0 "/></g></g><g transform="translate(23.606753, 26.051615)"><g><path d="M 0.046875 0.265625 C 0.0976562 0.222656 0.140625 0.179688 0.171875 0.140625 C 0.210938 0.0976562 0.234375 0.0507812 0.234375 0 C 0.203125 0 0.175781 -0.00390625 0.15625 -0.015625 C 0.132812 -0.0351562 0.125 -0.0625 0.125 -0.09375 C 0.125 -0.125 0.128906 -0.144531 0.140625 -0.15625 C 0.160156 -0.175781 0.1875 -0.1875 0.21875 -0.1875 C 0.257812 -0.1875 0.289062 -0.175781 0.3125 -0.15625 C 0.332031 -0.132812 0.34375 -0.0976562 0.34375 -0.046875 C 0.34375 0.0351562 0.320312 0.109375 0.28125 0.171875 C 0.238281 0.234375 0.179688 0.289062 0.109375 0.34375 Z M 0.046875 0.265625 "/></g></g><g transform="translate(24.068604, 26.051615)"><g/></g><g transform="translate(24.495582, 26.051615)"><g><path d="M 0.328125 0 L 0.1875 0 L 0.1875 -1.234375 L 0.40625 -1.234375 L 0.78125 -0.1875 L 0.796875 -0.1875 L 1.171875 -1.234375 L 1.375 -1.234375 L 1.375 0 L 1.234375 0 L 1.234375 -1.015625 L 1.21875 -1.015625 L 0.859375 0 L 0.703125 0 L 0.34375 -1.015625 L 0.328125 -1.015625 Z M 0.328125 0 "/></g></g><g transform="translate(26.069958, 26.051615)"><g><path d="M 0.390625 0.015625 C 0.296875 0.015625 0.222656 -0.00390625 0.171875 -0.046875 C 0.117188 -0.0976562 0.09375 -0.171875 0.09375 -0.265625 C 0.09375 -0.316406 0.101562 -0.359375 0.125 -0.390625 C 0.144531 -0.429688 0.179688 -0.460938 0.234375 -0.484375 C 0.285156 -0.515625 0.347656 -0.535156 0.421875 -0.546875 C 0.484375 -0.554688 0.53125 -0.566406 0.5625 -0.578125 C 0.601562 -0.597656 0.628906 -0.613281 0.640625 -0.625 C 0.660156 -0.644531 0.671875 -0.671875 0.671875 -0.703125 C 0.671875 -0.742188 0.65625 -0.773438 0.625 -0.796875 C 0.59375 -0.816406 0.546875 -0.828125 0.484375 -0.828125 C 0.421875 -0.828125 0.367188 -0.816406 0.328125 -0.796875 C 0.285156 -0.773438 0.242188 -0.738281 0.203125 -0.6875 L 0.1875 -0.6875 L 0.125 -0.78125 C 0.164062 -0.832031 0.210938 -0.875 0.265625 -0.90625 C 0.328125 -0.9375 0.398438 -0.953125 0.484375 -0.953125 C 0.585938 -0.953125 0.664062 -0.925781 0.71875 -0.875 C 0.769531 -0.832031 0.796875 -0.765625 0.796875 -0.671875 L 0.796875 -0.1875 C 0.796875 -0.132812 0.820312 -0.109375 0.875 -0.109375 C 0.882812 -0.109375 0.894531 -0.109375 0.90625 -0.109375 L 0.921875 -0.109375 L 0.9375 -0.015625 C 0.925781 -0.00390625 0.910156 0 0.890625 0 C 0.878906 0 0.863281 0 0.84375 0 C 0.789062 0 0.75 -0.0078125 0.71875 -0.03125 C 0.695312 -0.0507812 0.6875 -0.0820312 0.6875 -0.125 L 0.65625 -0.125 C 0.632812 -0.0820312 0.597656 -0.046875 0.546875 -0.015625 C 0.503906 0.00390625 0.453125 0.015625 0.390625 0.015625 Z M 0.421875 -0.09375 C 0.472656 -0.09375 0.515625 -0.101562 0.546875 -0.125 C 0.585938 -0.15625 0.617188 -0.191406 0.640625 -0.234375 C 0.660156 -0.273438 0.671875 -0.320312 0.671875 -0.375 L 0.671875 -0.5 L 0.65625 -0.5 C 0.632812 -0.488281 0.609375 -0.476562 0.578125 -0.46875 C 0.546875 -0.457031 0.503906 -0.445312 0.453125 -0.4375 C 0.398438 -0.425781 0.359375 -0.410156 0.328125 -0.390625 C 0.296875 -0.378906 0.269531 -0.363281 0.25 -0.34375 C 0.238281 -0.320312 0.234375 -0.296875 0.234375 -0.265625 C 0.234375 -0.203125 0.25 -0.15625 0.28125 -0.125 C 0.3125 -0.101562 0.359375 -0.09375 0.421875 -0.09375 Z M 0.421875 -0.09375 "/></g></g><g transform="translate(27.04044, 26.051615)"><g><path d="M 0.625 -0.140625 L 0.671875 -0.046875 C 0.648438 -0.0234375 0.617188 -0.0078125 0.578125 0 C 0.546875 0.0078125 0.507812 0.015625 0.46875 0.015625 C 0.289062 0.015625 0.203125 -0.0703125 0.203125 -0.25 L 0.203125 -0.828125 L 0.046875 -0.828125 L 0.046875 -0.9375 L 0.203125 -0.9375 L 0.203125 -1.125 L 0.34375 -1.15625 L 0.34375 -0.9375 L 0.640625 -0.9375 L 0.640625 -0.828125 L 0.34375 -0.828125 L 0.34375 -0.265625 C 0.34375 -0.160156 0.390625 -0.109375 0.484375 -0.109375 C 0.535156 -0.109375 0.578125 -0.117188 0.609375 -0.140625 Z M 0.625 -0.140625 "/></g></g><g transform="translate(27.754906, 26.051615)"><g><path d="M 0.234375 -1.109375 C 0.203125 -1.109375 0.175781 -1.117188 0.15625 -1.140625 C 0.144531 -1.160156 0.140625 -1.1875 0.140625 -1.21875 C 0.140625 -1.238281 0.144531 -1.257812 0.15625 -1.28125 C 0.175781 -1.300781 0.203125 -1.3125 0.234375 -1.3125 C 0.265625 -1.3125 0.285156 -1.300781 0.296875 -1.28125 C 0.316406 -1.257812 0.328125 -1.238281 0.328125 -1.21875 C 0.328125 -1.1875 0.316406 -1.160156 0.296875 -1.140625 C 0.285156 -1.117188 0.265625 -1.109375 0.234375 -1.109375 Z M 0.15625 0 L 0.15625 -0.9375 L 0.296875 -0.9375 L 0.296875 0 Z M 0.15625 0 "/></g></g></g><g fill="#000000" fill-opacity="1"><g transform="translate(3.892892, 28.374195)"><g><path d="M 0.6875 0.015625 C 0.570312 0.015625 0.472656 -0.00390625 0.390625 -0.046875 C 0.304688 -0.0976562 0.238281 -0.171875 0.1875 -0.265625 C 0.144531 -0.367188 0.125 -0.488281 0.125 -0.625 C 0.125 -0.75 0.144531 -0.859375 0.1875 -0.953125 C 0.238281 -1.054688 0.304688 -1.128906 0.390625 -1.171875 C 0.472656 -1.222656 0.570312 -1.25 0.6875 -1.25 C 0.800781 -1.25 0.894531 -1.226562 0.96875 -1.1875 C 1.050781 -1.144531 1.109375 -1.082031 1.140625 -1 L 1.046875 -0.9375 L 1.03125 -0.9375 C 0.988281 -1 0.941406 -1.046875 0.890625 -1.078125 C 0.835938 -1.109375 0.769531 -1.125 0.6875 -1.125 C 0.601562 -1.125 0.53125 -1.101562 0.46875 -1.0625 C 0.414062 -1.03125 0.367188 -0.976562 0.328125 -0.90625 C 0.296875 -0.832031 0.28125 -0.738281 0.28125 -0.625 C 0.28125 -0.5 0.296875 -0.398438 0.328125 -0.328125 C 0.367188 -0.253906 0.414062 -0.195312 0.46875 -0.15625 C 0.53125 -0.125 0.601562 -0.109375 0.6875 -0.109375 C 0.769531 -0.109375 0.835938 -0.128906 0.890625 -0.171875 C 0.953125 -0.210938 1 -0.28125 1.03125 -0.375 L 1.046875 -0.375 L 1.15625 -0.328125 C 1.125 -0.210938 1.066406 -0.125 0.984375 -0.0625 C 0.910156 -0.0078125 0.8125 0.015625 0.6875 0.015625 Z M 0.6875 0.015625 "/></g></g><g transform="translate(5.112586, 28.374195)"><g><path d="M 0.234375 -1.109375 C 0.203125 -1.109375 0.175781 -1.117188 0.15625 -1.140625 C 0.144531 -1.160156 0.140625 -1.1875 0.140625 -1.21875 C 0.140625 -1.238281 0.144531 -1.257812 0.15625 -1.28125 C 0.175781 -1.300781 0.203125 -1.3125 0.234375 -1.3125 C 0.265625 -1.3125 0.285156 -1.300781 0.296875 -1.28125 C 0.316406 -1.257812 0.328125 -1.238281 0.328125 -1.21875 C 0.328125 -1.1875 0.316406 -1.160156 0.296875 -1.140625 C 0.285156 -1.117188 0.265625 -1.109375 0.234375 -1.109375 Z M 0.15625 0 L 0.15625 -0.9375 L 0.296875 -0.9375 L 0.296875 0 Z M 0.15625 0 "/></g></g><g transform="translate(5.577839, 28.374195)"><g><path d="M 0.625 -0.140625 L 0.671875 -0.046875 C 0.648438 -0.0234375 0.617188 -0.0078125 0.578125 0 C 0.546875 0.0078125 0.507812 0.015625 0.46875 0.015625 C 0.289062 0.015625 0.203125 -0.0703125 0.203125 -0.25 L 0.203125 -0.828125 L 0.046875 -0.828125 L 0.046875 -0.9375 L 0.203125 -0.9375 L 0.203125 -1.125 L 0.34375 -1.15625 L 0.34375 -0.9375 L 0.640625 -0.9375 L 0.640625 -0.828125 L 0.34375 -0.828125 L 0.34375 -0.265625 C 0.34375 -0.160156 0.390625 -0.109375 0.484375 -0.109375 C 0.535156 -0.109375 0.578125 -0.117188 0.609375 -0.140625 Z M 0.625 -0.140625 "/></g></g><g transform="translate(6.292305, 28.374195)"><g><path d="M 0.1875 0.390625 C 0.15625 0.390625 0.125 0.382812 0.09375 0.375 C 0.0703125 0.375 0.0507812 0.367188 0.03125 0.359375 L 0.046875 0.25 L 0.0625 0.25 C 0.0820312 0.257812 0.101562 0.265625 0.125 0.265625 C 0.144531 0.273438 0.164062 0.28125 0.1875 0.28125 C 0.21875 0.28125 0.242188 0.273438 0.265625 0.265625 C 0.296875 0.253906 0.316406 0.234375 0.328125 0.203125 C 0.347656 0.179688 0.367188 0.148438 0.390625 0.109375 L 0.421875 0.015625 L 0.046875 -0.9375 L 0.203125 -0.9375 L 0.484375 -0.171875 L 0.5 -0.171875 L 0.796875 -0.9375 L 0.9375 -0.9375 L 0.515625 0.140625 C 0.492188 0.203125 0.46875 0.25 0.4375 0.28125 C 0.40625 0.320312 0.367188 0.347656 0.328125 0.359375 C 0.285156 0.378906 0.238281 0.390625 0.1875 0.390625 Z M 0.1875 0.390625 "/></g></g><g transform="translate(7.2815, 28.374195)"><g><path d="M 0.046875 0.265625 C 0.0976562 0.222656 0.140625 0.179688 0.171875 0.140625 C 0.210938 0.0976562 0.234375 0.0507812 0.234375 0 C 0.203125 0 0.175781 -0.00390625 0.15625 -0.015625 C 0.132812 -0.0351562 0.125 -0.0625 0.125 -0.09375 C 0.125 -0.125 0.128906 -0.144531 0.140625 -0.15625 C 0.160156 -0.175781 0.1875 -0.1875 0.21875 -0.1875 C 0.257812 -0.1875 0.289062 -0.175781 0.3125 -0.15625 C 0.332031 -0.132812 0.34375 -0.0976562 0.34375 -0.046875 C 0.34375 0.0351562 0.320312 0.109375 0.28125 0.171875 C 0.238281 0.234375 0.179688 0.289062 0.109375 0.34375 Z M 0.046875 0.265625 "/></g></g><g transform="translate(7.74335, 28.374195)"><g/></g><g transform="translate(8.170329, 28.374195)"><g><path d="M 0.59375 -1.234375 C 0.71875 -1.234375 0.820312 -1.210938 0.90625 -1.171875 C 1 -1.128906 1.066406 -1.0625 1.109375 -0.96875 C 1.160156 -0.875 1.1875 -0.757812 1.1875 -0.625 C 1.1875 -0.476562 1.160156 -0.359375 1.109375 -0.265625 C 1.066406 -0.179688 1 -0.113281 0.90625 -0.0625 C 0.820312 -0.0195312 0.71875 0 0.59375 0 L 0.1875 0 L 0.1875 -1.234375 Z M 0.578125 -0.125 C 0.679688 -0.125 0.765625 -0.140625 0.828125 -0.171875 C 0.898438 -0.203125 0.953125 -0.253906 0.984375 -0.328125 C 1.015625 -0.398438 1.03125 -0.5 1.03125 -0.625 C 1.03125 -0.738281 1.015625 -0.832031 0.984375 -0.90625 C 0.953125 -0.976562 0.898438 -1.03125 0.828125 -1.0625 C 0.765625 -1.09375 0.679688 -1.109375 0.578125 -1.109375 L 0.328125 -1.109375 L 0.328125 -0.125 Z M 0.578125 -0.125 "/></g></g><g transform="translate(9.49209, 28.374195)"><g><path d="M 0.390625 0.015625 C 0.296875 0.015625 0.222656 -0.00390625 0.171875 -0.046875 C 0.117188 -0.0976562 0.09375 -0.171875 0.09375 -0.265625 C 0.09375 -0.316406 0.101562 -0.359375 0.125 -0.390625 C 0.144531 -0.429688 0.179688 -0.460938 0.234375 -0.484375 C 0.285156 -0.515625 0.347656 -0.535156 0.421875 -0.546875 C 0.484375 -0.554688 0.53125 -0.566406 0.5625 -0.578125 C 0.601562 -0.597656 0.628906 -0.613281 0.640625 -0.625 C 0.660156 -0.644531 0.671875 -0.671875 0.671875 -0.703125 C 0.671875 -0.742188 0.65625 -0.773438 0.625 -0.796875 C 0.59375 -0.816406 0.546875 -0.828125 0.484375 -0.828125 C 0.421875 -0.828125 0.367188 -0.816406 0.328125 -0.796875 C 0.285156 -0.773438 0.242188 -0.738281 0.203125 -0.6875 L 0.1875 -0.6875 L 0.125 -0.78125 C 0.164062 -0.832031 0.210938 -0.875 0.265625 -0.90625 C 0.328125 -0.9375 0.398438 -0.953125 0.484375 -0.953125 C 0.585938 -0.953125 0.664062 -0.925781 0.71875 -0.875 C 0.769531 -0.832031 0.796875 -0.765625 0.796875 -0.671875 L 0.796875 -0.1875 C 0.796875 -0.132812 0.820312 -0.109375 0.875 -0.109375 C 0.882812 -0.109375 0.894531 -0.109375 0.90625 -0.109375 L 0.921875 -0.109375 L 0.9375 -0.015625 C 0.925781 -0.00390625 0.910156 0 0.890625 0 C 0.878906 0 0.863281 0 0.84375 0 C 0.789062 0 0.75 -0.0078125 0.71875 -0.03125 C 0.695312 -0.0507812 0.6875 -0.0820312 0.6875 -0.125 L 0.65625 -0.125 C 0.632812 -0.0820312 0.597656 -0.046875 0.546875 -0.015625 C 0.503906 0.00390625 0.453125 0.015625 0.390625 0.015625 Z M 0.421875 -0.09375 C 0.472656 -0.09375 0.515625 -0.101562 0.546875 -0.125 C 0.585938 -0.15625 0.617188 -0.191406 0.640625 -0.234375 C 0.660156 -0.273438 0.671875 -0.320312 0.671875 -0.375 L 0.671875 -0.5 L 0.65625 -0.5 C 0.632812 -0.488281 0.609375 -0.476562 0.578125 -0.46875 C 0.546875 -0.457031 0.503906 -0.445312 0.453125 -0.4375 C 0.398438 -0.425781 0.359375 -0.410156 0.328125 -0.390625 C 0.296875 -0.378906 0.269531 -0.363281 0.25 -0.34375 C 0.238281 -0.320312 0.234375 -0.296875 0.234375 -0.265625 C 0.234375 -0.203125 0.25 -0.15625 0.28125 -0.125 C 0.3125 -0.101562 0.359375 -0.09375 0.421875 -0.09375 Z M 0.421875 -0.09375 "/></g></g><g transform="translate(10.462572, 28.374195)"><g><path d="M 0.59375 0 L 0.40625 0 L 0.046875 -0.9375 L 0.1875 -0.9375 L 0.484375 -0.15625 L 0.515625 -0.15625 L 0.796875 -0.9375 L 0.9375 -0.9375 Z M 0.59375 0 "/></g></g><g transform="translate(11.45687, 28.374195)"><g><path d="M 0.390625 0.015625 C 0.296875 0.015625 0.222656 -0.00390625 0.171875 -0.046875 C 0.117188 -0.0976562 0.09375 -0.171875 0.09375 -0.265625 C 0.09375 -0.316406 0.101562 -0.359375 0.125 -0.390625 C 0.144531 -0.429688 0.179688 -0.460938 0.234375 -0.484375 C 0.285156 -0.515625 0.347656 -0.535156 0.421875 -0.546875 C 0.484375 -0.554688 0.53125 -0.566406 0.5625 -0.578125 C 0.601562 -0.597656 0.628906 -0.613281 0.640625 -0.625 C 0.660156 -0.644531 0.671875 -0.671875 0.671875 -0.703125 C 0.671875 -0.742188 0.65625 -0.773438 0.625 -0.796875 C 0.59375 -0.816406 0.546875 -0.828125 0.484375 -0.828125 C 0.421875 -0.828125 0.367188 -0.816406 0.328125 -0.796875 C 0.285156 -0.773438 0.242188 -0.738281 0.203125 -0.6875 L 0.1875 -0.6875 L 0.125 -0.78125 C 0.164062 -0.832031 0.210938 -0.875 0.265625 -0.90625 C 0.328125 -0.9375 0.398438 -0.953125 0.484375 -0.953125 C 0.585938 -0.953125 0.664062 -0.925781 0.71875 -0.875 C 0.769531 -0.832031 0.796875 -0.765625 0.796875 -0.671875 L 0.796875 -0.1875 C 0.796875 -0.132812 0.820312 -0.109375 0.875 -0.109375 C 0.882812 -0.109375 0.894531 -0.109375 0.90625 -0.109375 L 0.921875 -0.109375 L 0.9375 -0.015625 C 0.925781 -0.00390625 0.910156 0 0.890625 0 C 0.878906 0 0.863281 0 0.84375 0 C 0.789062 0 0.75 -0.0078125 0.71875 -0.03125 C 0.695312 -0.0507812 0.6875 -0.0820312 0.6875 -0.125 L 0.65625 -0.125 C 0.632812 -0.0820312 0.597656 -0.046875 0.546875 -0.015625 C 0.503906 0.00390625 0.453125 0.015625 0.390625 0.015625 Z M 0.421875 -0.09375 C 0.472656 -0.09375 0.515625 -0.101562 0.546875 -0.125 C 0.585938 -0.15625 0.617188 -0.191406 0.640625 -0.234375 C 0.660156 -0.273438 0.671875 -0.320312 0.671875 -0.375 L 0.671875 -0.5 L 0.65625 -0.5 C 0.632812 -0.488281 0.609375 -0.476562 0.578125 -0.46875 C 0.546875 -0.457031 0.503906 -0.445312 0.453125 -0.4375 C 0.398438 -0.425781 0.359375 -0.410156 0.328125 -0.390625 C 0.296875 -0.378906 0.269531 -0.363281 0.25 -0.34375 C 0.238281 -0.320312 0.234375 -0.296875 0.234375 -0.265625 C 0.234375 -0.203125 0.25 -0.15625 0.28125 -0.125 C 0.3125 -0.101562 0.359375 -0.09375 0.421875 -0.09375 Z M 0.421875 -0.09375 "/></g></g><g transform="translate(12.427352, 28.374195)"><g><path d="M 0.53125 0.015625 C 0.445312 0.015625 0.367188 0 0.296875 -0.03125 C 0.234375 -0.0703125 0.1875 -0.128906 0.15625 -0.203125 C 0.125 -0.273438 0.109375 -0.363281 0.109375 -0.46875 C 0.109375 -0.570312 0.125 -0.660156 0.15625 -0.734375 C 0.1875 -0.804688 0.234375 -0.859375 0.296875 -0.890625 C 0.367188 -0.929688 0.445312 -0.953125 0.53125 -0.953125 C 0.625 -0.953125 0.703125 -0.929688 0.765625 -0.890625 C 0.828125 -0.859375 0.875 -0.804688 0.90625 -0.734375 C 0.945312 -0.660156 0.96875 -0.570312 0.96875 -0.46875 C 0.96875 -0.363281 0.945312 -0.273438 0.90625 -0.203125 C 0.875 -0.128906 0.828125 -0.0703125 0.765625 -0.03125 C 0.703125 0 0.625 0.015625 0.53125 0.015625 Z M 0.53125 -0.109375 C 0.625 -0.109375 0.695312 -0.132812 0.75 -0.1875 C 0.800781 -0.25 0.828125 -0.34375 0.828125 -0.46875 C 0.828125 -0.59375 0.800781 -0.679688 0.75 -0.734375 C 0.695312 -0.796875 0.625 -0.828125 0.53125 -0.828125 C 0.4375 -0.828125 0.363281 -0.796875 0.3125 -0.734375 C 0.269531 -0.679688 0.25 -0.59375 0.25 -0.46875 C 0.25 -0.34375 0.269531 -0.25 0.3125 -0.1875 C 0.363281 -0.132812 0.4375 -0.109375 0.53125 -0.109375 Z M 0.53125 -0.109375 "/></g></g><g transform="translate(13.504154, 28.374195)"><g/></g><g transform="translate(13.931132, 28.374195)"><g><path d="M 0.671875 0.015625 C 0.566406 0.015625 0.472656 -0.00390625 0.390625 -0.046875 C 0.304688 -0.0976562 0.238281 -0.171875 0.1875 -0.265625 C 0.144531 -0.359375 0.125 -0.476562 0.125 -0.625 C 0.125 -0.757812 0.144531 -0.875 0.1875 -0.96875 C 0.238281 -1.0625 0.304688 -1.128906 0.390625 -1.171875 C 0.472656 -1.222656 0.566406 -1.25 0.671875 -1.25 C 0.785156 -1.25 0.882812 -1.222656 0.96875 -1.171875 C 1.050781 -1.128906 1.113281 -1.0625 1.15625 -0.96875 C 1.207031 -0.875 1.234375 -0.757812 1.234375 -0.625 C 1.234375 -0.476562 1.207031 -0.359375 1.15625 -0.265625 C 1.113281 -0.171875 1.050781 -0.0976562 0.96875 -0.046875 C 0.882812 -0.00390625 0.785156 0.015625 0.671875 0.015625 Z M 0.671875 -0.109375 C 0.804688 -0.109375 0.90625 -0.148438 0.96875 -0.234375 C 1.039062 -0.316406 1.078125 -0.445312 1.078125 -0.625 C 1.078125 -0.789062 1.039062 -0.914062 0.96875 -1 C 0.90625 -1.082031 0.804688 -1.125 0.671875 -1.125 C 0.410156 -1.125 0.28125 -0.957031 0.28125 -0.625 C 0.28125 -0.28125 0.410156 -0.109375 0.671875 -0.109375 Z M 0.671875 -0.109375 "/></g></g><g transform="translate(15.295421, 28.374195)"><g><path d="M 0.15625 0 L 0.15625 -0.9375 L 0.296875 -0.9375 L 0.296875 -0.78125 L 0.3125 -0.78125 C 0.351562 -0.882812 0.4375 -0.9375 0.5625 -0.9375 C 0.625 -0.9375 0.671875 -0.925781 0.703125 -0.90625 L 0.671875 -0.796875 L 0.640625 -0.78125 C 0.609375 -0.800781 0.570312 -0.8125 0.53125 -0.8125 C 0.457031 -0.8125 0.398438 -0.78125 0.359375 -0.71875 C 0.316406 -0.664062 0.296875 -0.578125 0.296875 -0.453125 L 0.296875 0 Z M 0.15625 0 "/></g></g><g transform="translate(16.020093, 28.374195)"><g><path d="M 0.234375 -1.109375 C 0.203125 -1.109375 0.175781 -1.117188 0.15625 -1.140625 C 0.144531 -1.160156 0.140625 -1.1875 0.140625 -1.21875 C 0.140625 -1.238281 0.144531 -1.257812 0.15625 -1.28125 C 0.175781 -1.300781 0.203125 -1.3125 0.234375 -1.3125 C 0.265625 -1.3125 0.285156 -1.300781 0.296875 -1.28125 C 0.316406 -1.257812 0.328125 -1.238281 0.328125 -1.21875 C 0.328125 -1.1875 0.316406 -1.160156 0.296875 -1.140625 C 0.285156 -1.117188 0.265625 -1.109375 0.234375 -1.109375 Z M 0.15625 0 L 0.15625 -0.9375 L 0.296875 -0.9375 L 0.296875 0 Z M 0.15625 0 "/></g></g><g transform="translate(16.485346, 28.374195)"><g><path d="M 0.890625 -0.4375 L 0.25 -0.4375 C 0.25 -0.320312 0.273438 -0.238281 0.328125 -0.1875 C 0.378906 -0.132812 0.445312 -0.109375 0.53125 -0.109375 C 0.601562 -0.109375 0.660156 -0.117188 0.703125 -0.140625 C 0.742188 -0.160156 0.773438 -0.195312 0.796875 -0.25 L 0.8125 -0.25 L 0.90625 -0.203125 C 0.875 -0.128906 0.828125 -0.0703125 0.765625 -0.03125 C 0.710938 0 0.632812 0.015625 0.53125 0.015625 C 0.445312 0.015625 0.367188 0 0.296875 -0.03125 C 0.234375 -0.0703125 0.1875 -0.128906 0.15625 -0.203125 C 0.125 -0.273438 0.109375 -0.363281 0.109375 -0.46875 C 0.109375 -0.570312 0.125 -0.660156 0.15625 -0.734375 C 0.195312 -0.804688 0.25 -0.859375 0.3125 -0.890625 C 0.375 -0.929688 0.445312 -0.953125 0.53125 -0.953125 C 0.644531 -0.953125 0.734375 -0.914062 0.796875 -0.84375 C 0.867188 -0.78125 0.90625 -0.679688 0.90625 -0.546875 C 0.90625 -0.492188 0.90625 -0.460938 0.90625 -0.453125 Z M 0.78125 -0.546875 C 0.769531 -0.648438 0.742188 -0.722656 0.703125 -0.765625 C 0.660156 -0.804688 0.601562 -0.828125 0.53125 -0.828125 C 0.445312 -0.828125 0.378906 -0.804688 0.328125 -0.765625 C 0.285156 -0.722656 0.257812 -0.648438 0.25 -0.546875 Z M 0.78125 -0.546875 "/></g></g><g transform="translate(17.485598, 28.374195)"><g><path d="M 0.15625 0 L 0.15625 -0.9375 L 0.296875 -0.9375 L 0.296875 -0.78125 L 0.3125 -0.78125 C 0.34375 -0.832031 0.378906 -0.875 0.421875 -0.90625 C 0.472656 -0.9375 0.535156 -0.953125 0.609375 -0.953125 C 0.722656 -0.953125 0.800781 -0.921875 0.84375 -0.859375 C 0.894531 -0.804688 0.921875 -0.71875 0.921875 -0.59375 L 0.921875 0 L 0.796875 0 L 0.796875 -0.59375 C 0.796875 -0.65625 0.785156 -0.703125 0.765625 -0.734375 C 0.753906 -0.765625 0.734375 -0.785156 0.703125 -0.796875 C 0.671875 -0.816406 0.628906 -0.828125 0.578125 -0.828125 C 0.492188 -0.828125 0.425781 -0.800781 0.375 -0.75 C 0.320312 -0.695312 0.296875 -0.609375 0.296875 -0.484375 L 0.296875 0 Z M 0.15625 0 "/></g></g><g transform="translate(18.565802, 28.374195)"><g><path d="M 0.625 -0.140625 L 0.671875 -0.046875 C 0.648438 -0.0234375 0.617188 -0.0078125 0.578125 0 C 0.546875 0.0078125 0.507812 0.015625 0.46875 0.015625 C 0.289062 0.015625 0.203125 -0.0703125 0.203125 -0.25 L 0.203125 -0.828125 L 0.046875 -0.828125 L 0.046875 -0.9375 L 0.203125 -0.9375 L 0.203125 -1.125 L 0.34375 -1.15625 L 0.34375 -0.9375 L 0.640625 -0.9375 L 0.640625 -0.828125 L 0.34375 -0.828125 L 0.34375 -0.265625 C 0.34375 -0.160156 0.390625 -0.109375 0.484375 -0.109375 C 0.535156 -0.109375 0.578125 -0.117188 0.609375 -0.140625 Z M 0.625 -0.140625 "/></g></g><g transform="translate(19.280267, 28.374195)"><g><path d="M 0.390625 0.015625 C 0.296875 0.015625 0.222656 -0.00390625 0.171875 -0.046875 C 0.117188 -0.0976562 0.09375 -0.171875 0.09375 -0.265625 C 0.09375 -0.316406 0.101562 -0.359375 0.125 -0.390625 C 0.144531 -0.429688 0.179688 -0.460938 0.234375 -0.484375 C 0.285156 -0.515625 0.347656 -0.535156 0.421875 -0.546875 C 0.484375 -0.554688 0.53125 -0.566406 0.5625 -0.578125 C 0.601562 -0.597656 0.628906 -0.613281 0.640625 -0.625 C 0.660156 -0.644531 0.671875 -0.671875 0.671875 -0.703125 C 0.671875 -0.742188 0.65625 -0.773438 0.625 -0.796875 C 0.59375 -0.816406 0.546875 -0.828125 0.484375 -0.828125 C 0.421875 -0.828125 0.367188 -0.816406 0.328125 -0.796875 C 0.285156 -0.773438 0.242188 -0.738281 0.203125 -0.6875 L 0.1875 -0.6875 L 0.125 -0.78125 C 0.164062 -0.832031 0.210938 -0.875 0.265625 -0.90625 C 0.328125 -0.9375 0.398438 -0.953125 0.484375 -0.953125 C 0.585938 -0.953125 0.664062 -0.925781 0.71875 -0.875 C 0.769531 -0.832031 0.796875 -0.765625 0.796875 -0.671875 L 0.796875 -0.1875 C 0.796875 -0.132812 0.820312 -0.109375 0.875 -0.109375 C 0.882812 -0.109375 0.894531 -0.109375 0.90625 -0.109375 L 0.921875 -0.109375 L 0.9375 -0.015625 C 0.925781 -0.00390625 0.910156 0 0.890625 0 C 0.878906 0 0.863281 0 0.84375 0 C 0.789062 0 0.75 -0.0078125 0.71875 -0.03125 C 0.695312 -0.0507812 0.6875 -0.0820312 0.6875 -0.125 L 0.65625 -0.125 C 0.632812 -0.0820312 0.597656 -0.046875 0.546875 -0.015625 C 0.503906 0.00390625 0.453125 0.015625 0.390625 0.015625 Z M 0.421875 -0.09375 C 0.472656 -0.09375 0.515625 -0.101562 0.546875 -0.125 C 0.585938 -0.15625 0.617188 -0.191406 0.640625 -0.234375 C 0.660156 -0.273438 0.671875 -0.320312 0.671875 -0.375 L 0.671875 -0.5 L 0.65625 -0.5 C 0.632812 -0.488281 0.609375 -0.476562 0.578125 -0.46875 C 0.546875 -0.457031 0.503906 -0.445312 0.453125 -0.4375 C 0.398438 -0.425781 0.359375 -0.410156 0.328125 -0.390625 C 0.296875 -0.378906 0.269531 -0.363281 0.25 -0.34375 C 0.238281 -0.320312 0.234375 -0.296875 0.234375 -0.265625 C 0.234375 -0.203125 0.25 -0.15625 0.28125 -0.125 C 0.3125 -0.101562 0.359375 -0.09375 0.421875 -0.09375 Z M 0.421875 -0.09375 "/></g></g><g transform="translate(20.25075, 28.374195)"><g><path d="M 0.375 0.015625 C 0.300781 0.015625 0.242188 0 0.203125 -0.03125 C 0.171875 -0.0703125 0.15625 -0.128906 0.15625 -0.203125 L 0.15625 -1.3125 L 0.296875 -1.3125 L 0.296875 -0.21875 C 0.296875 -0.175781 0.300781 -0.144531 0.3125 -0.125 C 0.332031 -0.113281 0.359375 -0.109375 0.390625 -0.109375 C 0.410156 -0.109375 0.429688 -0.109375 0.453125 -0.109375 L 0.46875 0 C 0.457031 0 0.441406 0 0.421875 0 C 0.410156 0.0078125 0.394531 0.015625 0.375 0.015625 Z M 0.375 0.015625 "/></g></g><g transform="translate(20.761082, 28.374195)"><g><path d="M 0.046875 0.265625 C 0.0976562 0.222656 0.140625 0.179688 0.171875 0.140625 C 0.210938 0.0976562 0.234375 0.0507812 0.234375 0 C 0.203125 0 0.175781 -0.00390625 0.15625 -0.015625 C 0.132812 -0.0351562 0.125 -0.0625 0.125 -0.09375 C 0.125 -0.125 0.128906 -0.144531 0.140625 -0.15625 C 0.160156 -0.175781 0.1875 -0.1875 0.21875 -0.1875 C 0.257812 -0.1875 0.289062 -0.175781 0.3125 -0.15625 C 0.332031 -0.132812 0.34375 -0.0976562 0.34375 -0.046875 C 0.34375 0.0351562 0.320312 0.109375 0.28125 0.171875 C 0.238281 0.234375 0.179688 0.289062 0.109375 0.34375 Z M 0.046875 0.265625 "/></g></g><g transform="translate(21.222933, 28.374195)"><g/></g><g transform="translate(21.649911, 28.374195)"><g><path d="M 0.515625 0.015625 C 0.429688 0.015625 0.359375 0.00390625 0.296875 -0.015625 C 0.234375 -0.046875 0.179688 -0.0859375 0.140625 -0.140625 C 0.109375 -0.203125 0.09375 -0.269531 0.09375 -0.34375 C 0.09375 -0.414062 0.113281 -0.476562 0.15625 -0.53125 C 0.195312 -0.582031 0.253906 -0.625 0.328125 -0.65625 L 0.328125 -0.671875 C 0.273438 -0.710938 0.234375 -0.753906 0.203125 -0.796875 C 0.171875 -0.835938 0.15625 -0.882812 0.15625 -0.9375 C 0.15625 -1 0.171875 -1.050781 0.203125 -1.09375 C 0.234375 -1.144531 0.273438 -1.179688 0.328125 -1.203125 C 0.390625 -1.234375 0.453125 -1.25 0.515625 -1.25 C 0.585938 -1.25 0.648438 -1.234375 0.703125 -1.203125 C 0.765625 -1.179688 0.8125 -1.144531 0.84375 -1.09375 C 0.875 -1.050781 0.890625 -1 0.890625 -0.9375 C 0.890625 -0.882812 0.875 -0.835938 0.84375 -0.796875 C 0.8125 -0.753906 0.769531 -0.710938 0.71875 -0.671875 L 0.71875 -0.65625 C 0.789062 -0.625 0.847656 -0.582031 0.890625 -0.53125 C 0.929688 -0.476562 0.953125 -0.414062 0.953125 -0.34375 C 0.953125 -0.269531 0.9375 -0.203125 0.90625 -0.140625 C 0.875 -0.0859375 0.820312 -0.046875 0.75 -0.015625 C 0.6875 0.00390625 0.609375 0.015625 0.515625 0.015625 Z M 0.515625 -0.71875 C 0.566406 -0.71875 0.609375 -0.722656 0.640625 -0.734375 C 0.671875 -0.753906 0.695312 -0.78125 0.71875 -0.8125 C 0.738281 -0.84375 0.75 -0.878906 0.75 -0.921875 C 0.75 -0.960938 0.738281 -1 0.71875 -1.03125 C 0.695312 -1.0625 0.671875 -1.085938 0.640625 -1.109375 C 0.609375 -1.128906 0.566406 -1.140625 0.515625 -1.140625 C 0.453125 -1.140625 0.398438 -1.117188 0.359375 -1.078125 C 0.316406 -1.035156 0.296875 -0.984375 0.296875 -0.921875 C 0.296875 -0.859375 0.316406 -0.804688 0.359375 -0.765625 C 0.398438 -0.734375 0.453125 -0.71875 0.515625 -0.71875 Z M 0.515625 -0.109375 C 0.609375 -0.109375 0.675781 -0.128906 0.71875 -0.171875 C 0.769531 -0.210938 0.796875 -0.269531 0.796875 -0.34375 C 0.796875 -0.425781 0.769531 -0.488281 0.71875 -0.53125 C 0.675781 -0.570312 0.609375 -0.59375 0.515625 -0.59375 C 0.429688 -0.59375 0.363281 -0.570312 0.3125 -0.53125 C 0.269531 -0.488281 0.25 -0.425781 0.25 -0.34375 C 0.25 -0.269531 0.269531 -0.210938 0.3125 -0.171875 C 0.363281 -0.128906 0.429688 -0.109375 0.515625 -0.109375 Z M 0.515625 -0.109375 "/></g></g><g transform="translate(22.702047, 28.374195)"><g><path d="M 0.078125 -0.0625 C 0.078125 -0.125 0.0820312 -0.175781 0.09375 -0.21875 C 0.113281 -0.257812 0.140625 -0.296875 0.171875 -0.328125 C 0.210938 -0.367188 0.269531 -0.421875 0.34375 -0.484375 L 0.484375 -0.578125 C 0.535156 -0.617188 0.578125 -0.65625 0.609375 -0.6875 C 0.640625 -0.71875 0.660156 -0.75 0.671875 -0.78125 C 0.691406 -0.8125 0.703125 -0.851562 0.703125 -0.90625 C 0.703125 -0.976562 0.679688 -1.03125 0.640625 -1.0625 C 0.609375 -1.101562 0.550781 -1.125 0.46875 -1.125 C 0.40625 -1.125 0.347656 -1.109375 0.296875 -1.078125 C 0.242188 -1.046875 0.203125 -1.003906 0.171875 -0.953125 L 0.15625 -0.953125 L 0.0625 -1.03125 C 0.101562 -1.101562 0.15625 -1.15625 0.21875 -1.1875 C 0.289062 -1.226562 0.375 -1.25 0.46875 -1.25 C 0.550781 -1.25 0.617188 -1.234375 0.671875 -1.203125 C 0.734375 -1.179688 0.78125 -1.140625 0.8125 -1.078125 C 0.84375 -1.023438 0.859375 -0.96875 0.859375 -0.90625 C 0.859375 -0.851562 0.84375 -0.800781 0.8125 -0.75 C 0.789062 -0.695312 0.757812 -0.648438 0.71875 -0.609375 C 0.675781 -0.566406 0.625 -0.523438 0.5625 -0.484375 L 0.421875 -0.375 C 0.367188 -0.34375 0.328125 -0.3125 0.296875 -0.28125 C 0.273438 -0.257812 0.257812 -0.234375 0.25 -0.203125 C 0.238281 -0.179688 0.234375 -0.15625 0.234375 -0.125 L 0.859375 -0.125 L 0.859375 0 L 0.078125 0 Z M 0.078125 -0.0625 "/></g></g><g transform="translate(23.65807, 28.374195)"><g><path d="M 0.609375 0.015625 C 0.515625 0.015625 0.429688 -0.00390625 0.359375 -0.046875 C 0.285156 -0.0859375 0.226562 -0.15625 0.1875 -0.25 C 0.144531 -0.351562 0.125 -0.476562 0.125 -0.625 C 0.125 -0.769531 0.144531 -0.890625 0.1875 -0.984375 C 0.226562 -1.078125 0.285156 -1.144531 0.359375 -1.1875 C 0.429688 -1.226562 0.515625 -1.25 0.609375 -1.25 C 0.703125 -1.25 0.785156 -1.226562 0.859375 -1.1875 C 0.929688 -1.144531 0.988281 -1.078125 1.03125 -0.984375 C 1.070312 -0.890625 1.09375 -0.769531 1.09375 -0.625 C 1.09375 -0.476562 1.070312 -0.351562 1.03125 -0.25 C 0.988281 -0.15625 0.929688 -0.0859375 0.859375 -0.046875 C 0.785156 -0.00390625 0.703125 0.015625 0.609375 0.015625 Z M 0.609375 -0.109375 C 0.710938 -0.109375 0.789062 -0.144531 0.84375 -0.21875 C 0.90625 -0.300781 0.9375 -0.4375 0.9375 -0.625 C 0.9375 -0.800781 0.90625 -0.925781 0.84375 -1 C 0.789062 -1.082031 0.710938 -1.125 0.609375 -1.125 C 0.535156 -1.125 0.472656 -1.101562 0.421875 -1.0625 C 0.378906 -1.03125 0.34375 -0.976562 0.3125 -0.90625 C 0.289062 -0.832031 0.28125 -0.738281 0.28125 -0.625 C 0.28125 -0.5 0.289062 -0.398438 0.3125 -0.328125 C 0.34375 -0.253906 0.378906 -0.195312 0.421875 -0.15625 C 0.472656 -0.125 0.535156 -0.109375 0.609375 -0.109375 Z M 0.609375 -0.109375 "/></g></g><g transform="translate(24.881167, 28.374195)"><g><path d="M 0.609375 0.015625 C 0.515625 0.015625 0.429688 -0.00390625 0.359375 -0.046875 C 0.285156 -0.0859375 0.226562 -0.15625 0.1875 -0.25 C 0.144531 -0.351562 0.125 -0.476562 0.125 -0.625 C 0.125 -0.769531 0.144531 -0.890625 0.1875 -0.984375 C 0.226562 -1.078125 0.285156 -1.144531 0.359375 -1.1875 C 0.429688 -1.226562 0.515625 -1.25 0.609375 -1.25 C 0.703125 -1.25 0.785156 -1.226562 0.859375 -1.1875 C 0.929688 -1.144531 0.988281 -1.078125 1.03125 -0.984375 C 1.070312 -0.890625 1.09375 -0.769531 1.09375 -0.625 C 1.09375 -0.476562 1.070312 -0.351562 1.03125 -0.25 C 0.988281 -0.15625 0.929688 -0.0859375 0.859375 -0.046875 C 0.785156 -0.00390625 0.703125 0.015625 0.609375 0.015625 Z M 0.609375 -0.109375 C 0.710938 -0.109375 0.789062 -0.144531 0.84375 -0.21875 C 0.90625 -0.300781 0.9375 -0.4375 0.9375 -0.625 C 0.9375 -0.800781 0.90625 -0.925781 0.84375 -1 C 0.789062 -1.082031 0.710938 -1.125 0.609375 -1.125 C 0.535156 -1.125 0.472656 -1.101562 0.421875 -1.0625 C 0.378906 -1.03125 0.34375 -0.976562 0.3125 -0.90625 C 0.289062 -0.832031 0.28125 -0.738281 0.28125 -0.625 C 0.28125 -0.5 0.289062 -0.398438 0.3125 -0.328125 C 0.34375 -0.253906 0.378906 -0.195312 0.421875 -0.15625 C 0.472656 -0.125 0.535156 -0.109375 0.609375 -0.109375 Z M 0.609375 -0.109375 "/></g></g></g></svg>