<svg xmlns="http://www.w3.org/2000/svg" xmlns:xlink="http://www.w3.org/1999/xlink" width="40" zoomAndPan="magnify" viewBox="0 0 30 30.000001" height="40" preserveAspectRatio="xMidYMid meet" version="1.0"><defs><clipPath id="044b14b1ae"><path d="M 0.484375 0.0351562 L 29.515625 0.0351562 L 29.515625 29.03125 L 0.484375 29.03125 Z M 0.484375 0.0351562 " clip-rule="nonzero"/></clipPath></defs><g clip-path="url(#044b14b1ae)"><path fill="#000000" d="M 29.5 14.527344 C 29.5 15.480469 29.40625 16.421875 29.222656 17.355469 C 29.035156 18.289062 28.761719 19.195312 28.398438 20.074219 C 28.03125 20.953125 27.585938 21.789062 27.058594 22.582031 C 26.527344 23.371094 25.925781 24.105469 25.253906 24.777344 C 24.582031 25.449219 23.847656 26.050781 23.054688 26.578125 C 22.265625 27.109375 21.429688 27.554688 20.550781 27.917969 C 19.667969 28.28125 18.761719 28.558594 17.828125 28.742188 C 16.894531 28.929688 15.953125 29.023438 15 29.023438 C 14.046875 29.023438 13.105469 28.929688 12.171875 28.742188 C 11.238281 28.558594 10.332031 28.28125 9.449219 27.917969 C 8.570312 27.554688 7.734375 27.109375 6.945312 26.578125 C 6.152344 26.050781 5.417969 25.449219 4.746094 24.777344 C 4.074219 24.105469 3.472656 23.371094 2.941406 22.582031 C 2.414062 21.789062 1.96875 20.953125 1.601562 20.074219 C 1.238281 19.195312 0.964844 18.289062 0.777344 17.355469 C 0.589844 16.421875 0.5 15.480469 0.5 14.527344 C 0.5 13.578125 0.589844 12.636719 0.777344 11.703125 C 0.964844 10.769531 1.238281 9.863281 1.601562 8.984375 C 1.96875 8.105469 2.414062 7.269531 2.941406 6.476562 C 3.472656 5.6875 4.074219 4.953125 4.746094 4.28125 C 5.417969 3.609375 6.152344 3.007812 6.945312 2.480469 C 7.734375 1.949219 8.570312 1.503906 9.449219 1.140625 C 10.332031 0.773438 11.238281 0.5 12.171875 0.316406 C 13.105469 0.128906 14.046875 0.0351562 15 0.0351562 C 15.953125 0.0351562 16.894531 0.128906 17.828125 0.316406 C 18.761719 0.5 19.667969 0.773438 20.550781 1.140625 C 21.429688 1.503906 22.265625 1.949219 23.054688 2.480469 C 23.847656 3.007812 24.582031 3.609375 25.253906 4.28125 C 25.925781 4.953125 26.527344 5.6875 27.058594 6.476562 C 27.585938 7.269531 28.03125 8.105469 28.398438 8.984375 C 28.761719 9.863281 29.035156 10.769531 29.222656 11.703125 C 29.40625 12.636719 29.5 13.578125 29.5 14.527344 Z M 29.5 14.527344 " fill-opacity="1" fill-rule="nonzero"/></g><path fill="#5ce1e6" d="M 15.84375 14.542969 L 17.035156 13.171875 L 24.125 5 L 22.457031 5 L 16.285156 12.09375 L 15 13.570312 L 13.714844 12.09375 L 7.542969 5 L 5.871094 5 L 12.964844 13.171875 L 14.152344 14.542969 L 13.25 15.578125 L 5.871094 24.058594 L 7.585938 24.058594 L 14.007812 16.660156 L 15 15.515625 L 15.992188 16.660156 L 22.414062 24.058594 L 24.125 24.058594 L 16.746094 15.578125 Z M 15.84375 14.542969 " fill-opacity="1" fill-rule="nonzero"/></svg>